<svg xmlns="http://www.w3.org/2000/svg" xmlns:xlink="http://www.w3.org/1999/xlink" width="238" height="140" viewBox="0 0 238 140"><defs><style>.a{fill:#fff;stroke:#707070;}.b{clip-path:url(#a);}.c,.d,.e{stroke:#fff;stroke-miterlimit:10;stroke-width:0.206px;}.d{fill:#f9452d;}.e{fill:#f7772f;}</style><clipPath id="a"><rect class="a" width="238" height="140"/></clipPath></defs><g class="b"><g transform="translate(0.097 46.116)"><g transform="translate(0)"><g transform="translate(52.245 6.511)"><path class="c" d="M73.706,13.731q-4.615,0-6.663,2.8a12.7,12.7,0,0,0-2.048,7.655,16.578,16.578,0,0,0,.51,4.271,9.83,9.83,0,0,0,1.519,3.3A6.893,6.893,0,0,0,69.563,33.9a7.882,7.882,0,0,0,3.549.763c.736,0,1.359-.01,1.878-.041a8.273,8.273,0,0,0,1.378-.186V23.294h6.6V39.15a22.861,22.861,0,0,1-3.8,1.083,30.91,30.91,0,0,1-6.474.578A15.484,15.484,0,0,1,66.7,39.7a12.368,12.368,0,0,1-4.587-3.239,14.708,14.708,0,0,1-2.935-5.22,22.322,22.322,0,0,1-1.038-7.077,20.422,20.422,0,0,1,1.142-7.118,15.549,15.549,0,0,1,3.133-5.251,13.083,13.083,0,0,1,4.672-3.26,14.809,14.809,0,0,1,5.729-1.114,21.561,21.561,0,0,1,6.625.99,13.633,13.633,0,0,1,1.991.8c.519.279.9.5,1.123.65L80.652,15.64a16.091,16.091,0,0,0-3.105-1.362A13.434,13.434,0,0,0,73.706,13.731Z" transform="translate(-58.143 -7.417)"/><path class="c" d="M91.98,40.223V8.191h19.791v6.056H98.577v6.283H110.29v5.922H98.577v7.717h14.166v6.056H91.98Z" transform="translate(-61.024 -7.417)"/><path class="c" d="M139.658,40.223q-2.831-5.493-6.135-10.863A109.554,109.554,0,0,0,126.5,19.24V40.223h-6.512V8.191h5.37q1.4,1.532,3.086,3.745c1.123,1.475,2.275,3.064,3.445,4.735s2.331,3.425,3.492,5.22,2.237,3.539,3.256,5.2V8.181H145.2V40.213h-5.54Z" transform="translate(-63.41 -7.417)"/><path class="c" d="M154.941,40.223V8.191h19.791v6.056H161.538v6.283H173.25v5.922H161.538v7.717H175.7v6.056H154.941Z" transform="translate(-66.386 -7.417)"/><path class="c" d="M190.772,34.725a8.436,8.436,0,0,0,2.3-.258,4.119,4.119,0,0,0,1.463-.691,2.274,2.274,0,0,0,.764-1.042,4.007,4.007,0,0,0,.208-1.341,3.17,3.17,0,0,0-1.35-2.61,18.51,18.51,0,0,0-4.653-2.239c-.963-.371-1.916-.794-2.879-1.269a10.309,10.309,0,0,1-2.577-1.805,8.513,8.513,0,0,1-1.859-2.631,8.876,8.876,0,0,1-.717-3.765,10.07,10.07,0,0,1,.764-4,8.389,8.389,0,0,1,2.161-3.023,9.553,9.553,0,0,1,3.379-1.919,14.07,14.07,0,0,1,4.483-.671,16.714,16.714,0,0,1,5.115.691,17.283,17.283,0,0,1,3.549,1.527l-1.906,5.684a17.8,17.8,0,0,0-2.728-1.228,10.97,10.97,0,0,0-3.615-.536,6.207,6.207,0,0,0-3.407.712,2.487,2.487,0,0,0-1.038,2.2,2.662,2.662,0,0,0,.378,1.475,3.813,3.813,0,0,0,1.076,1.083,9.127,9.127,0,0,0,1.6.877c.6.258,1.274.536,2.01.8a43.279,43.279,0,0,1,3.973,1.826,10.568,10.568,0,0,1,2.812,2.1,7.83,7.83,0,0,1,1.67,2.816,12.3,12.3,0,0,1,.547,3.931,8.663,8.663,0,0,1-2.879,6.953q-2.874,2.476-8.673,2.476a21.65,21.65,0,0,1-6.276-.877,15.5,15.5,0,0,1-2.076-.784,15.9,15.9,0,0,1-1.463-.784l1.859-5.736a16.156,16.156,0,0,0,3.237,1.413A15.433,15.433,0,0,0,190.772,34.725Z" transform="translate(-68.6 -7.417)"/><path class="c" d="M219.826,21.324c1.189-2.187,2.312-4.364,3.388-6.551s2.057-4.384,2.963-6.592h7.277q-2.407,5.184-4.993,10.027-2.576,4.859-5.455,9.749V40.2h-6.6V28.06q-2.874-4.905-5.474-9.8T205.924,8.181h7.654q1.345,3.327,2.916,6.592Q218.052,18.054,219.826,21.324Z" transform="translate(-70.728 -7.417)"/><path class="c" d="M247.306,34.725a8.436,8.436,0,0,0,2.3-.258,4.12,4.12,0,0,0,1.463-.691,2.275,2.275,0,0,0,.764-1.042,4.007,4.007,0,0,0,.208-1.341,3.17,3.17,0,0,0-1.35-2.61,18.51,18.51,0,0,0-4.653-2.239c-.963-.371-1.916-.794-2.879-1.269a10.309,10.309,0,0,1-2.577-1.805,8.513,8.513,0,0,1-1.859-2.631,8.876,8.876,0,0,1-.717-3.765,10.069,10.069,0,0,1,.764-4,8.389,8.389,0,0,1,2.161-3.023,9.553,9.553,0,0,1,3.379-1.919,14.07,14.07,0,0,1,4.483-.671,16.714,16.714,0,0,1,5.115.691,17.282,17.282,0,0,1,3.549,1.527l-1.906,5.684a17.8,17.8,0,0,0-2.728-1.228,10.97,10.97,0,0,0-3.615-.536,6.207,6.207,0,0,0-3.407.712,2.487,2.487,0,0,0-1.038,2.2,2.662,2.662,0,0,0,.378,1.475,3.813,3.813,0,0,0,1.076,1.083,9.129,9.129,0,0,0,1.6.877c.6.258,1.274.536,2.01.8a43.279,43.279,0,0,1,3.973,1.826,10.568,10.568,0,0,1,2.812,2.1,7.83,7.83,0,0,1,1.671,2.816,12.3,12.3,0,0,1,.547,3.931,8.663,8.663,0,0,1-2.879,6.953q-2.874,2.476-8.673,2.476a21.65,21.65,0,0,1-6.276-.877,15.5,15.5,0,0,1-2.076-.784,15.893,15.893,0,0,1-1.463-.784l1.859-5.736a16.157,16.157,0,0,0,3.237,1.413A15.433,15.433,0,0,0,247.306,34.725Z" transform="translate(-73.414 -7.417)"/></g><path class="d" d="M40.01,39.2c-3.228-3.621-6.323-7.025-9.325-10.533a2.987,2.987,0,0,1-.34-2.063,8.771,8.771,0,0,0-3.416-8.893,7.032,7.032,0,0,0-8.381.072,8.618,8.618,0,0,0-3.284,8.924,2.6,2.6,0,0,1-.283,1.857c-3.048,3.559-6.182,7.046-9.3,10.554C-.988,31.434-.337,16.62,6.723,8.532,14.953-.9,28.251-1.682,37.094,6.737,45.663,14.876,47.154,29.422,40.01,39.2Z" transform="translate(-1.035 -0.906)"/><path class="e" d="M34.9,37.624C36.136,39,37.306,40.3,38.476,41.585c-5.984,8.274-21.329,10.368-29.852.5,1.189-1.351,2.369-2.7,3.586-4.085C20.346,44.391,27.491,44.391,34.9,37.624Z" transform="translate(-1.681 -0.906)"/><path class="e" d="M18.739,31.217c4.266,2.61,6.191,2.61,10.457-.031q1.713,2.074,3.473,4.178c-4.549,5.168-12.3,5.241-17.762-.3C16.191,33.786,17.455,32.507,18.739,31.217Z" transform="translate(-2.216 -0.906)"/><path class="e" d="M19.993,24.914c-.047-2.827,1.944-5.1,4.464-5.076a4.687,4.687,0,0,1,4.332,4.942,4.66,4.66,0,0,1-4.341,4.931A4.634,4.634,0,0,1,19.993,24.914Z" transform="translate(-2.649 -0.906)"/></g></g></g></svg>