<svg xmlns="http://www.w3.org/2000/svg" xmlns:xlink="http://www.w3.org/1999/xlink" width="238" height="140" viewBox="0 0 238 140"><defs><style>.a{fill:#fff;stroke:#707070;}.b{clip-path:url(#a);}.c{fill:#4cb4f4;}.c,.d,.e,.f,.g{fill-rule:evenodd;}.d{fill:#3cacf1;}.e{fill:#4cbcf6;}.f{fill:#44b3f4;}.g{fill:#5cc4fc;}</style><clipPath id="a"><rect class="a" width="238" height="140" transform="translate(-0.074)"/></clipPath></defs><g class="b" transform="translate(0.074)"><g transform="translate(37.607 0)"><path class="c" d="M84.466.175a9.509,9.509,0,0,0,1.984.1h1.985V5.265c0,4.244-.027,4.974-.181,4.909a.2.2,0,0,0-.259.145c-.1.293.009.4.219.208.127-.116.173-.095.186.085a3.069,3.069,0,0,0,.176.657c.087.231.167.452.177.49s.151.385.314.77.378.92.479,1.19.238.6.305.733a1.413,1.413,0,0,1,.122.533c0,.159.057.251.127.2s.094.007.05.132-.013.217.066.217.129.047.114.1a1.671,1.671,0,0,0,.11.525c.076.231.149.483.162.56a1.8,1.8,0,0,0,.2.43,4.475,4.475,0,0,1,.334.875c.088.322.209.585.268.585a.086.086,0,0,1,.088.1,2.664,2.664,0,0,0,.21.665,3.368,3.368,0,0,1,.233.735c0,.1.042.175.09.175a2.6,2.6,0,0,1,.319.84,2.461,2.461,0,0,0,.326.84c.072,0,.238.454.245.666a4.777,4.777,0,0,0,.2.454,2.78,2.78,0,0,1,.188.453,14.939,14.939,0,0,0,1.062,2.6c.053.026.064.105.024.177a2.956,2.956,0,0,0,.319,1.038,5.673,5.673,0,0,1,.393,1.118c0,.115.058.21.128.21s.118.047.1.1a2.414,2.414,0,0,0,.192.647,3.135,3.135,0,0,1,.216.735c0,.106.061.193.136.193s.1.063.057.14-.018.14.057.14.136.111.136.247a2.343,2.343,0,0,0,.237.735,7.932,7.932,0,0,1,.4,1.048,2.885,2.885,0,0,0,.275.693.591.591,0,0,1,.113.329,2.374,2.374,0,0,0,.184.637,8.432,8.432,0,0,1,.6,1.666.088.088,0,0,0,.094.1c.1,0,.283.523.243.7a1.415,1.415,0,0,0,.161.42,2,2,0,0,1,.182.45,1.034,1.034,0,0,0,.2.35,1.088,1.088,0,0,1,.208.495c.028.475.048.525.207.525.088,0,.173.2.188.439a1.394,1.394,0,0,0,.224.676.892.892,0,0,1,.2.471c0,.129.056.234.124.234s.091.095.05.21-.01.21.068.21.132.047.12.1c-.042.209.18.875.291.875.063,0,.114.122.114.272a.491.491,0,0,0,.13.36.183.183,0,0,1,.044.239c-.047.083.021.237.151.34s.168.189.085.189.012.33.238.786a2.643,2.643,0,0,1,.326.855c-.035.038.045.195.176.349a.607.607,0,0,1,.177.457.491.491,0,0,0,.146.4c.114.125.18.277.146.337s.053.266.195.456.214.258.162.149c-.066-.135-.046-.163.064-.089a.375.375,0,0,1,.1.372c-.035.145-.011.229.053.186s.116.015.116.128a.321.321,0,0,1-.16.277c-.09.04-.056.076.079.082.19.009.225.089.172.393-.063.358-.055.365.113.113s.18-.252.18.1c0,.2-.069.391-.153.421s-.068.092.07.15.195.042.134-.066-.034-.121.059-.06a.505.505,0,0,1,.092.442c-.031.188,0,.341.071.341s.092.063.048.14.007.14.112.14c.206,0,.4.476.279.688a.322.322,0,0,0,.1.316.65.65,0,0,1,.216.544c0,.081.059.108.131.06s.121-.037.108.027a3.566,3.566,0,0,0,.5,1.548.282.282,0,0,1,0,.5c-.1.042-.07.075.064.082s.224.081.224.166-.093.116-.216.064-.053.075.148.278c.293.3.329.394.185.494s-.142.125-.012.126c.092,0,.136.058.1.126s.017.2.123.3c.163.148.182.134.117-.089-.072-.251-.069-.252.072-.012a.647.647,0,0,1,.075.463c-.042.118-.018.171.053.123s.127.007.127.121a.321.321,0,0,1-.16.277c-.1.042-.07.075.064.082s.217.058.209.116c-.052.363.021.523.143.315.1-.165.125-.128.126.166a.713.713,0,0,0,.114.452.676.676,0,0,1,.112.439.919.919,0,0,0,.144.52c.107.117.144-2.284.144-9.258,0-6.242-.043-9.387-.128-9.329s-.128.02-.128-.062a.151.151,0,0,1,.153-.148c.084,0,.046-.085-.083-.189s-.2-.262-.145-.35.024-.161-.059-.161-.127-.137-.089-.35c.045-.259.006-.35-.151-.35-.192,0-.519-.853-.59-1.54l-.043-.42c-.017-.175-.039-.177-.133-.016s-.13.13-.2-.1a.711.711,0,0,1-.007-.438c.044-.078.024-.141-.046-.141s-.164-.189-.21-.42-.137-.42-.2-.42a.136.136,0,0,1-.118-.148c0-.082.057-.109.128-.062s.128.02.128-.062a.175.175,0,0,0-.192-.148c-.232,0-.257-.368-.032-.468.093-.041.063-.075-.072-.081s-.2-.069-.159-.139a.145.145,0,0,0-.089-.2c-.127-.056-.127-.073,0-.082s.116-.09-.033-.337c-.107-.18-.152-.379-.1-.443s.036-.079-.038-.033c-.175.109-.483-.414-.312-.53.069-.046-.02-.23-.2-.409-.2-.2-.291-.41-.241-.552s.014-.227-.083-.227-.125-.041-.079-.092.021-.176-.057-.278a.477.477,0,0,1-.067-.4c.041-.117.024-.212-.037-.212s-.084-.117-.05-.261a.283.283,0,0,0-.158-.353c-.193-.081-.2-.061-.048.156s.144.222,0,.078c-.232-.226-.524-1.16-.363-1.16.068,0-.01-.236-.173-.525a1.91,1.91,0,0,1-.257-.562c.087-.082-.136-.873-.246-.873a.084.084,0,0,1-.092-.1c.046-.183-.3-1.16-.389-1.1-.047.032-.1-.134-.114-.368a1.351,1.351,0,0,0-.215-.651.95.95,0,0,1-.2-.331,3.582,3.582,0,0,0-.069-.455c-.016-.077-.038-.222-.049-.323s-.071-.149-.133-.106-.154-.158-.2-.447a2.035,2.035,0,0,0-.3-.783c-.117-.143-.2-.3-.183-.35.069-.205-.124-.577-.254-.489-.09.06-.112.012-.061-.132a4.207,4.207,0,0,0-.506-1.86c-.094-.16-.133-.334-.086-.385s.02-.093-.059-.093-.11-.1-.063-.233.029-.2-.044-.148a8.142,8.142,0,0,1-.807-2.319.725.725,0,0,0-.195-.325.8.8,0,0,1-.2-.454,1.177,1.177,0,0,0-.175-.515,2.839,2.839,0,0,1-.273-.626c-.054-.193-.2-.6-.331-.91s-.356-.906-.506-1.33a6.91,6.91,0,0,0-.373-.91,5.413,5.413,0,0,1-.319-.911,9.512,9.512,0,0,0-.463-1.274c-.135-.278-.208-.545-.162-.6s.028-.091-.039-.091S95.013,8,95,7.849a1.885,1.885,0,0,0-.249-.655,1.637,1.637,0,0,1-.233-.6c0-.121-.084-.2-.184-.177-.156.036-.156.006,0-.21.1-.139.125-.2.06-.143s-.234-.284-.389-.806c-.149-.5-.32-.868-.379-.81s-.064.025-.011-.075c.127-.242-.277-.906-.477-.783-.114.07-.117.051-.013-.073.161-.191.083-.853-.1-.853-.066,0-.085-.062-.043-.138s-.038-.274-.18-.441-.228-.357-.19-.423c.117-.207-.085-.688-.246-.587-.083.052-.108.043-.056-.02a.273.273,0,0,0-.048-.3c-.078-.1-.1-.188-.058-.188s.02-.13-.058-.29c-.146-.3-7.676-.391-7.679-.1m-.374.5c-.093.191-.081.257.05.257.1,0,.168-.116.158-.257-.022-.321-.051-.321-.208,0m-.7,1.736a.579.579,0,0,0,.057.455c.09.1.1.065.046-.1-.047-.135-.031-.245.035-.245s.12-.095.12-.21c0-.32-.174-.25-.258.1m-.292.735a.375.375,0,0,0,0,.312c.044.048.08.01.08-.084s.058-.133.128-.085.128.024.128-.053c0-.252-.256-.32-.337-.089M82.61,4.616c-.177.376-.177.408,0,.333.109-.046.17-.116.134-.155s-.007-.189.063-.333.1-.262.063-.262a1.168,1.168,0,0,0-.262.416m5.143,6.537a.7.7,0,0,0-.085.373c0,.344.117.24.189-.168.056-.316.035-.357-.1-.206m-.726,2.007c-.1.069-.142.171-.09.228s.162.03.244-.06c.194-.212.085-.33-.153-.168m-1.5,3.989c-.182.226-.2.351-.063.351.054,0,.169-.126.257-.28.183-.32.046-.369-.194-.071m-.608,1.727c.035.039-.033.189-.153.333-.165.2-.172.244-.03.184.288-.121.525-.587.3-.587-.1,0-.151.032-.116.07m-.641,1.7c.044.077.009.14-.078.14s-.127.033-.09.073c.109.119.493-.091.415-.228a.26.26,0,0,0-.2-.125c-.07,0-.092.063-.049.14m-.619,1.493a.746.746,0,0,0-.085.389,1.331,1.331,0,0,1-.193.6c-.142.222-.154.328-.044.4.089.06.115.04.065-.048s-.03-.171.037-.2a1.354,1.354,0,0,0,.243-.642c.125-.613.123-.66-.022-.5m-1.125,3.161a1.589,1.589,0,0,0,0,.28c.009.058-.042.1-.113.1a.149.149,0,0,0-.128.162c0,.1.094.068.235-.071a.784.784,0,0,0,.235-.442c0-.252-.207-.283-.229-.034m3.954,11.689c-2.674.056-2.7.315-.032.315h1.985v5.056c0,4.873-.009,5.054-.24,4.987-.192-.055-.226-.009-.17.225.039.161.094.217.122.122a.233.233,0,0,1,.191-.171c.077,0,.105.037.063.082a5.48,5.48,0,0,0,.834,2.274.113.113,0,0,1,.033.161c-.1.169.263.855.384.735.057-.056.062-.024.011.073-.119.227.033.763.188.658.065-.044.083.019.041.139a.865.865,0,0,0,.14.579c.119.2.185.4.147.437s.015.208.118.369a1.246,1.246,0,0,1,.188.55c0,.141.043.228.1.192s.105.1.116.3.083.39.16.418a.282.282,0,0,1,.14.258c0,.114.057.168.127.121s.094.005.053.123a2.944,2.944,0,0,0,.272,1.093c.19.486.389,1.009.442,1.163a4.293,4.293,0,0,0,.569,1.213.931.931,0,0,1,.158.49c.068.677.085.747.18.747.051,0,.138.173.192.385s.108.416.118.455a4.3,4.3,0,0,0,.616,1.26c.058,0,.073.058.033.129-.1.168.157.887.281.8.053-.036.107.1.121.306a3.89,3.89,0,0,0,.248.931c.123.308.232.592.243.63s.115.3.232.59a3.8,3.8,0,0,1,.212.615,15.079,15.079,0,0,0,.637,1.6c.052.116.311.809.575,1.54s.59,1.6.723,1.923a3.363,3.363,0,0,1,.243.8c0,.117.057.212.128.212s.128.133.128.3a2.513,2.513,0,0,0,.239.805c.131.28.313.7.4.929s.3.71.463,1.065a5.025,5.025,0,0,1,.341.91,4.5,4.5,0,0,0,.24.755c.481,1.181.534,1.339.508,1.5a.16.16,0,0,0,.177.175c.113,0,.171.062.128.137a.638.638,0,0,0,.084.455,2.687,2.687,0,0,1,.182.423.487.487,0,0,0,.046.14,1.55,1.55,0,0,1,.072.3.7.7,0,0,0,.15.35.71.71,0,0,1,.149.364,1.239,1.239,0,0,0,.224.5c.1.121.151.254.115.293a3.985,3.985,0,0,0,.628,1.548c.093.068.076.1-.05.109-.15.005-.139.051.048.206a.424.424,0,0,1,.168.4.233.233,0,0,0,.13.29c.112.047.166.125.121.173s-.016.175.064.28.11.23.068.276-.016.211.059.366c.111.226.159.243.25.087.109-.188.188.126.125.493a.308.308,0,0,0,.145.245c.134.095.129.145-.025.256s-.16.138.032.14c.123,0,.224.068.224.15s-.072.1-.16.043c-.152-.1-.052.064.416.684a1.1,1.1,0,0,1,.2.354c.017.278.217.73.322.73.178,0,.144.386-.041.468-.1.042-.07.075.064.081s.224.081.224.166-.089.117-.2.072-.165-.024-.12.055a.313.313,0,0,0,.248.138c.228,0,.334.493.153.709-.109.13-.106.148.015.073s.163.008.169.224c.008.293.018.3.106.054s.1-.252.183-.024c.138.391.1.5-.138.424-.126-.039-.1,0,.054.091a.912.912,0,0,1,.341,1.009c-.056.1-.007.093.124-.024.193-.171.217-.153.217.167a.664.664,0,0,0,.113.435c.173.117.262.787.093.7-.078-.042-.012.049.147.2.316.3.365.583.147.822-.1.113-.078.149.1.133s.235.068.227.293c-.005.173.032.315.083.315s.127.1.169.217.023.181-.06.125-.063.036.027.193.2.261.244.231.091.037.1.149.031.3.043.414.076.21.142.21.088.093.048.206a.263.263,0,0,0,.05.288c.077.052.122-3.517.122-9.714,0-6.746-.042-9.811-.135-9.845-.074-.027-.147-.278-.16-.558s-.062-.484-.107-.453-.118-.044-.16-.165c-.112-.319-.1-.366.083-.258.088.052,0-.076-.2-.286s-.33-.468-.294-.573a.247.247,0,0,0-.055-.274.328.328,0,0,1-.12-.25c0-.1.052-.083.126.044.087.147.125.156.126.03a.3.3,0,0,0-.181-.256.324.324,0,0,1-.135-.35c.026-.15,0-.237-.068-.194s-.205-.109-.314-.339c-.25-.529-.248-.579.026-.489.158.052.14,0-.064-.161a.842.842,0,0,1-.288-.576c0-.188-.052-.306-.115-.264-.176.119-.269-.286-.106-.464.106-.116.089-.157-.067-.157s-.194-.092-.161-.28c.027-.154.007-.28-.044-.28s-.2-.2-.331-.44-.172-.4-.092-.342c.178.121.188-.052.018-.337-.068-.116-.132-.147-.141-.07s-.088-.175-.175-.56c-.1-.434-.219-.684-.321-.659s-.134-.042-.085-.184a1.031,1.031,0,0,0-.107-.618c-.1-.217-.145-.443-.1-.5s-.014-.069-.142-.019c-.188.074-.217.038-.151-.188.05-.17.022-.279-.07-.279s-.117-.095-.076-.21.026-.21-.033-.21-.1-.142-.088-.315a.584.584,0,0,0-.084-.4.762.762,0,0,1-.155-.376,2.462,2.462,0,0,0-.177-.55,1.877,1.877,0,0,1-.146-.394,10.437,10.437,0,0,0-.527-1.363,1.441,1.441,0,0,1-.117-.525c0-.155-.051-.282-.114-.282-.111,0-.333-.666-.291-.875.012-.057-.035-.1-.1-.1s-.093-.088-.055-.2a.26.26,0,0,0-.07-.29,2.908,2.908,0,0,1-.532-1.252.27.27,0,0,0-.131-.234.712.712,0,0,1-.2-.433.9.9,0,0,0-.258-.5c-.118-.1-.151-.175-.074-.175s.111-.125.074-.278-.112-.248-.168-.21-.069-.067-.029-.234c.05-.207.026-.27-.076-.2s-.148-.006-.148-.193a2.874,2.874,0,0,0-.211-.813c-.116-.286-.228-.583-.249-.661a14.776,14.776,0,0,0-.7-1.89,7.184,7.184,0,0,1-.532-1.715.085.085,0,0,0-.092-.1c-.065,0-.217-.331-.339-.735a2.817,2.817,0,0,0-.341-.82c-.066-.047-.111-.11-.1-.14a1.772,1.772,0,0,0-.117-.448,2.583,2.583,0,0,1-.137-.527,1.172,1.172,0,0,0-.116-.376,28.657,28.657,0,0,1-1.114-2.839,10.989,10.989,0,0,0-.451-1.219,2.651,2.651,0,0,1-.24-.694c0-.1-.058-.181-.128-.181s-.119-.047-.107-.1a4.117,4.117,0,0,0-.416-1.208,2.466,2.466,0,0,1-.2-.626,1.5,1.5,0,0,0-.167-.507,3.44,3.44,0,0,1-.269-.739c-.09-.333-.241-.595-.341-.595s-.144-.061-.1-.137a6.118,6.118,0,0,0-.754-2.137c-.077-.056-.09-.1-.029-.1s.04-.1-.048-.212c-.167-.221-.109-.22-5.539-.105m-2.4.584a1.384,1.384,0,0,1-.078.35c-.044.124-.012.222.072.222s.114-.063.07-.14-.028-.14.035-.14.114-.094.114-.21-.048-.21-.107-.21a.12.12,0,0,0-.107.129m-.256.91a.313.313,0,0,1-.16.269c-.1.045-.083.075.049.082.115.006.239-.115.276-.269s.015-.28-.049-.28-.116.089-.116.2m-.392.875c-.093.268-.087.415.022.525s.127.106.061-.023a.409.409,0,0,1,.009-.35c.117-.2.173-.525.093-.525a.92.92,0,0,0-.186.373m-.9,2.337c-.208.448-.195.79.03.79.069,0,.088-.066.042-.146a.369.369,0,0,1,.072-.35c.085-.112.112-.2.059-.2s-.028-.089.055-.2.1-.228.048-.265-.194.131-.306.373m-.457,1.411a.231.231,0,0,1-.054.27c-.068.037-.05.052.039.032.209-.046.3-.5.095-.5-.083,0-.12.09-.081.2m5.744,4.794a1.01,1.01,0,0,1-.138.447c-.131.258-.132.318-.007.273.218-.08.4-.643.24-.75-.069-.047-.112-.033-.1.031m-.472,1.412a.686.686,0,0,0-.164.383c-.035.276-.033.276.16.008.271-.376.273-.607,0-.391m-.864,2.3c-.253.29-.28.4-.1.4.122,0,.449-.551.367-.618-.023-.019-.143.081-.267.222m-.437,1.017a.23.23,0,0,1-.054.27c-.068.038-.05.052.039.032.209-.046.3-.5.095-.5-.083,0-.12.09-.081.2M85.11,54.84c-.168.206-.163.221.043.135a1.459,1.459,0,0,1,.284-.1c.03,0,.054-.063.054-.14,0-.206-.166-.161-.38.1m-.238.818a.49.49,0,0,0-.122.364c.026.085.146-.012.268-.215.236-.394.136-.5-.146-.149M84.263,57.5c-.165.123-.6,1.05-.441.944.06-.04.138.006.173.1.066.177.134-.228.095-.559-.011-.1.033-.175.1-.175s.153-.094.194-.21c.083-.238.073-.246-.12-.1m-.859,1.95c-.032.181,0,.37.073.418s.092.019.039-.073-.037-.161.029-.161.148-.116.182-.257-.007-.257-.1-.257-.19.149-.221.33m.548,11.791a.308.308,0,0,0,.128.222c.07.048.128.02.128-.062a6,6,0,0,1,2.145-.148H88.5L88.462,77.1c-.038,5.919,0,6.842.256,6.667.084-.057.105-.032.052.062a1.93,1.93,0,0,0,.214.9c.166.407.494,1.243.729,1.859s.5,1.309.589,1.54a6.981,6.981,0,0,1,.251.8c.048.212.149.385.223.385s.1.041.051.092a.211.211,0,0,0,.03.245,13.61,13.61,0,0,1,.582,1.483c.258.731.547,1.519.643,1.75s.27.7.387,1.05.285.788.373.98a8.652,8.652,0,0,1,.33.945c.094.327.215.595.269.595s.137.2.186.455a3.336,3.336,0,0,0,.636,1.4c.07.056.076.1.012.1s-.006.139.128.306c.151.187.171.257.052.18-.165-.106-.164-.075.009.221a6.891,6.891,0,0,1,.438,1.185,12.466,12.466,0,0,0,.536,1.49,3.412,3.412,0,0,1,.3.875c0,.124.051.225.114.225s.149.155.193.344a6.849,6.849,0,0,0,.227.735c.081.215.155.423.164.461a3.823,3.823,0,0,0,.192.42,1.716,1.716,0,0,1,.169.42,4.068,4.068,0,0,0,.2.63,2.357,2.357,0,0,1,.178.665.078.078,0,0,0,.078.1,2.077,2.077,0,0,1,.352.805,5.425,5.425,0,0,0,.315.875,6.287,6.287,0,0,1,.5,1.473c-.03,0,.075.184.234.4a1.558,1.558,0,0,1,.288.731c0,.182.051.331.114.331s.151.214.2.476a1.371,1.371,0,0,0,.261.639.527.527,0,0,1,.132.434c-.026.149.016.271.094.271s.106.039.063.087,0,.178.107.29a.8.8,0,0,1,.186.465.476.476,0,0,0,.137.354.26.26,0,0,1,.068.288c-.038.108-.019.2.041.2s.146.154.189.343.129.488.191.665a1.379,1.379,0,0,1,.095.4.74.74,0,0,0,.208.325.874.874,0,0,1,.224.484,1.362,1.362,0,0,0,.215.575,2.025,2.025,0,0,1,.257.751,1.248,1.248,0,0,0,.316.675c.151.143.214.26.139.26-.207,0-.04.509.3.906.165.195.26.355.21.356s-.008.059.092.128a.872.872,0,0,1,.2.577.947.947,0,0,0,.258.642c.137.109.17.191.078.191-.11,0-.095.073.049.23.17.186.178.253.041.348s-.109.118.068.12c.157,0,.213.073.166.209a.288.288,0,0,0,.12.324.636.636,0,0,1,.212.459.729.729,0,0,0,.154.446c.088.069.068.152-.058.243-.164.118-.16.138.032.14.123,0,.224.068.224.15s-.062.106-.138.055-.062.04.031.2.219.294.28.294.083.121.048.27c-.046.192-.012.247.118.193.2-.086.189.243-.02.411-.078.063-.062.1.041.1.174,0,.535.333.535.491,0,.048-.072.042-.16-.014s-.059.024.064.178a1.066,1.066,0,0,1,.224.389c0,.06-.1.07-.224.022-.144-.056-.116.006.078.172a1.079,1.079,0,0,1,.337.709c.039.5.191.774.2.355,0-.251.012-.253.136-.021a.837.837,0,0,1,.046.543c-.057.2-.039.263.056.2.079-.053.142,0,.142.111a1.659,1.659,0,0,0,.086.451c.063.18.041.214-.084.13s-.139-.061-.074.054.138.13.276,0,.181-.1.181.18a.87.87,0,0,0,.1.449,2.458,2.458,0,0,1,.243.618c.114.4.15-1.728.16-9.391.012-8.884-.007-9.9-.186-9.9-.11,0-.167-.057-.127-.128a.159.159,0,0,0-.088-.21c-.125-.064-.127-.1,0-.162.107-.055.055-.183-.162-.4-.2-.2-.289-.407-.239-.55.044-.125.02-.227-.053-.227s-.2-.349-.291-.775c-.1-.468-.2-.707-.256-.6s-.126.05-.183-.2a.953.953,0,0,1,0-.519c.046-.082-.006-.187-.116-.233a.4.4,0,0,1-.2-.349c0-.145-.051-.265-.113-.265s-.143-.126-.18-.28,0-.28.074-.28.029-.093-.108-.206c-.191-.158-.2-.208-.057-.214s.141-.041-.038-.155a.341.341,0,0,1-.151-.415c.053-.182.017-.27-.107-.27-.216,0-.656-1.328-.519-1.569.059-.1.016-.127-.124-.069-.117.049-.213.028-.213-.046a.154.154,0,0,1,.16-.14c.088,0,.057-.07-.07-.15a.342.342,0,0,1-.146-.433c.061-.209.039-.258-.077-.179s-.143.01-.1-.262c.053-.3.017-.371-.188-.371s-.241-.073-.193-.346c.037-.214.011-.312-.071-.257s-.1,0-.05-.144.02-.233-.058-.233-.085-.072.02-.21c.131-.172.122-.21-.044-.21-.129,0-.177-.077-.129-.212a.474.474,0,0,0-.049-.385,3.886,3.886,0,0,1-.3-.838c-.1-.366-.219-.665-.275-.665s-.1-.094-.1-.21-.061-.21-.136-.21-.106-.052-.071-.115a.9.9,0,0,0-.125-.516,1.048,1.048,0,0,1-.123-.592c.037-.105.01-.153-.059-.106s-.127-.008-.127-.121a3.994,3.994,0,0,0-.276-.883,7.577,7.577,0,0,1-.312-.873.544.544,0,0,0-.2-.307c-.091-.061-.126-.154-.078-.207s-.009-.292-.127-.532a5.245,5.245,0,0,1-.227-.507,3.4,3.4,0,0,0-.473-1.26c-.063,0-.082-.058-.042-.13a.163.163,0,0,0-.047-.212,1.658,1.658,0,0,1-.277-.6,1.668,1.668,0,0,0-.3-.626c-.1-.07-.089-.1.026-.1.131,0,.126-.085-.027-.387a24.14,24.14,0,0,1-.946-2.356c-.133-.379-.29-.815-.348-.969s-.115-.311-.127-.35a9.973,9.973,0,0,0-.448-1.153,1.338,1.338,0,0,1-.128-.525c0-.155-.057-.282-.126-.282s-.191-.283-.271-.63-.206-.63-.279-.63-.1-.041-.05-.092a.214.214,0,0,0-.023-.245,5.516,5.516,0,0,1-.33-.923,3.91,3.91,0,0,0-.436-1.029.685.685,0,0,1-.186-.35,5.832,5.832,0,0,0-.789-2.26.945.945,0,0,1-.106-.525c.032-.1,0-.175-.061-.175s-.2-.268-.294-.595-.336-.988-.533-1.467a5.519,5.519,0,0,1-.357-1.085c0-.117-.058-.213-.128-.213a.15.15,0,0,1-.128-.164,1,1,0,0,0-.224-.444c-.123-.154-.146-.23-.051-.169.144.093.145.056,0-.221a3.688,3.688,0,0,1-.184-.4c-.025-.114-.2-.609-.321-.91a2.968,2.968,0,0,1-.149-.484c-.092-.528-.2-.544-4.1-.558a22.5,22.5,0,0,0-3.81.121m-.212.528a3.745,3.745,0,0,1-.135.359c-.029.058.033.1.136.1.128,0,.168-.1.125-.315-.05-.253-.036-.274.074-.1.085.129.138.146.139.043,0-.287-.252-.353-.339-.087M82.445,75.2a.38.38,0,0,0,.2.222c.094.034.122-.03.074-.166-.089-.254-.354-.307-.277-.055m5,7.051c-.188.224-.2.342-.046.342.109,0,.314-.421.241-.5-.02-.02-.107.049-.2.154m.571.062c.037.154.114.28.172.28s.1-.126.086-.28-.088-.28-.172-.28-.125.115-.086.28m-1.3,1.9c-.232.254-.262.48-.066.48.074,0,.1-.063.057-.14s-.024-.14.043-.14.155-.095.2-.21c.094-.27.023-.266-.23.01M85.975,86c-.044.253-.013.33.111.278.2-.083.212-.178.059-.44-.08-.138-.125-.1-.17.162m-.392,1.065c-.044.183-.011.247.1.2.238-.1.343-.469.135-.469-.1,0-.2.121-.238.27m-.82,2.342c.046.051.024.171-.049.267-.092.121-.092.2,0,.266.074.05.134.029.134-.046a1.39,1.39,0,0,1,.078-.358c.046-.131.011-.222-.085-.222s-.125.041-.079.092m-.7,1.728c-.009.077-.023.2-.032.268a.5.5,0,0,1-.112.234.537.537,0,0,0-.088.327c0,.133.064.082.148-.128a1.379,1.379,0,0,0,.12-.455c-.011-.058.038-.1.108-.1a.141.141,0,0,0,0-.28.155.155,0,0,0-.144.14m-.452,1.324a.315.315,0,0,0-.034.371c.092.159.114.152.115-.038a.32.32,0,0,1,.156-.289c.088-.032.1-.091.032-.137s-.188,0-.269.093m-.173.888c0,.093-.092.121-.22.067-.195-.082-.2-.067-.032.13s.2.2.3.016c.059-.113.074-.243.032-.289s-.076-.011-.076.076" transform="translate(-6.981 0.005)"/><path class="d" d="M151.219,36.924a3.349,3.349,0,0,0-.146.56c-.049.25-.138.455-.2.455a1.967,1.967,0,0,0-.323.805,3.485,3.485,0,0,1-.31.875,3.406,3.406,0,0,0-.322.84,7.59,7.59,0,0,1-.378,1.05,5.806,5.806,0,0,0-.326.875,1.508,1.508,0,0,1-.254.6,1.787,1.787,0,0,0-.253.665,6.219,6.219,0,0,1-.395,1.085,6.239,6.239,0,0,0-.395,1.085c-.1.366-.225.665-.289.665s-.085.126-.048.28.015.245-.049.2-.117,0-.118.1a4.116,4.116,0,0,1-.314.883,9.407,9.407,0,0,0-.47,1.358c-.086.362-.213.62-.282.573s-.1.038-.053.217.027.272-.028.234-.173.215-.261.56-.2.627-.256.627a2.74,2.74,0,0,0-.334.91,3,3,0,0,1-.324.91,2.253,2.253,0,0,0-.307.77,1.771,1.771,0,0,1-.338.77c-.064,0-.1.079-.084.175a1.02,1.02,0,0,1-.127.49c-.087.173-.127.315-.087.315s-.028.205-.15.455a1.667,1.667,0,0,0-.2.56.079.079,0,0,1-.079.1,1.557,1.557,0,0,0-.279.7,1.737,1.737,0,0,1-.265.7c-.05,0-.13.173-.177.385a8.352,8.352,0,0,1-.394,1.1,10.578,10.578,0,0,0-.464,1.357c-.086.351-.2.611-.249.576s-.138.142-.192.393a3.448,3.448,0,0,1-.232.835.523.523,0,0,0-.013.385c.046.081-.007.147-.117.147s-.207.063-.216.14a1.051,1.051,0,0,1-.154.525.357.357,0,0,0-.022.315c.044.077.011.14-.071.14s-.126.14-.086.367c.047.272,0,.384-.164.433-.263.075-.257.423.011.609.112.078.125.127.032.129a.25.25,0,0,0-.206.177c-.031.1-.04.064-.022-.07.056-.408-.133-.275-.349.247-.112.27-.153.526-.091.568.182.123.13.339-.062.258a.2.2,0,0,0-.255.152c-.049.141-.027.19.058.133s-.011.163-.191.475c-.307.533-.315.583-.112.8s.2.229-.1.13c-.173-.058-.273-.058-.223,0s.007.238-.1.4a1.236,1.236,0,0,0-.188.541c0,.137-.061.249-.136.249s-.1.059-.062.13a.154.154,0,0,1-.031.2,2.509,2.509,0,0,0-.28.773c-.1.387-.216.675-.266.641a3.788,3.788,0,0,0-.44,1.374.444.444,0,0,1-.195.243c-.106.073-.142.133-.081.135s.04.1-.048.212-.112.21-.054.21.036.076-.048.168c-.193.211-.2.532-.012.532.078,0,.109-.094.068-.21s0-.21.1-.21c.2,0,.437-.639.383-1.031a.282.282,0,0,1,.2-.328c.144-.041.277-.266.343-.579s.134,3.386.172,9.078c.035,5.274.02,9.611-.033,9.636s-.064.1-.025.175,0,.128-.084.128-.121.04-.076.089.023.206-.047.35c-.1.2-.084.262.072.262.12,0,.231-.169.277-.42.042-.231.123-.42.18-.42a2.058,2.058,0,0,0,.317-.8,3.982,3.982,0,0,1,.3-.875,2.838,2.838,0,0,0,.4-.987c0-.232-.235-.144-.3.112-.053.222-.06.222-.073-.013a.331.331,0,0,1,.241-.331.335.335,0,0,0,.256-.267c0-.107.064-.194.142-.194s.109-.094.068-.21-.025-.21.035-.21.173-.28.252-.621a1.841,1.841,0,0,1,.271-.708.4.4,0,0,0,.128-.3c0-.123-.061-.169-.148-.11s-.113.039-.055-.064.142-.131.2-.09c.153.1.4-.77.326-1.166-.046-.262-.023-.3.114-.171s.191.1.251-.069c.118-.335.092-.441-.049-.2-.075.126-.125.144-.126.044a.336.336,0,0,1,.127-.254c.276-.186.613-1.162.463-1.339-.108-.128-.1-.146.015-.073.1.063.212-.044.3-.294.079-.216.244-.645.367-.953.443-1.111.544-1.468.472-1.673a.274.274,0,0,1,.069-.3c.086-.058.106-.032.051.066s-.031.161.042.161c.119,0,.174-.144.325-.848.118-.55.24-.832.362-.832.074,0,.1-.041.05-.092a.216.216,0,0,1,.02-.245,4.13,4.13,0,0,0,.276-.748,1.357,1.357,0,0,1,.262-.595,1.588,1.588,0,0,0,.259-.665,9.424,9.424,0,0,1,.466-1.317,5.9,5.9,0,0,0,.376-1.085c.044-.238.125-.433.179-.433a2.145,2.145,0,0,0,.328-.805,3.965,3.965,0,0,1,.317-.875,3.271,3.271,0,0,0,.3-.766,4.864,4.864,0,0,1,.321-.84,5.505,5.505,0,0,0,.335-.948,2.24,2.24,0,0,1,.326-.805,2.111,2.111,0,0,0,.306-.79,6.671,6.671,0,0,1,.373-1.085,5.413,5.413,0,0,0,.332-.89c.093-.327.212-.6.266-.6s.136-.2.184-.455a8.978,8.978,0,0,1,.464-1.343,8.688,8.688,0,0,0,.452-1.295c.041-.223.12-.407.175-.407a2.146,2.146,0,0,0,.328-.8,3.945,3.945,0,0,1,.317-.875,3.268,3.268,0,0,0,.3-.766,5.073,5.073,0,0,1,.319-.84,5.556,5.556,0,0,0,.33-.913,4.142,4.142,0,0,1,.31-.84,4.523,4.523,0,0,0,.328-.875,2.609,2.609,0,0,1,.327-.805,3.157,3.157,0,0,0,.319-.91,2.715,2.715,0,0,1,.334-.91,2.322,2.322,0,0,0,.311-.837c.118-.461.254-.811.3-.779s.19-.331.318-.808a4.894,4.894,0,0,1,.391-1.076,3.365,3.365,0,0,0,.323-.875,1.58,1.58,0,0,1,.255-.665,2.477,2.477,0,0,0,.324-.84,2.579,2.579,0,0,1,.32-.84,2.585,2.585,0,0,0,.32-.84,2.082,2.082,0,0,1,.346-.84c.062,0,.1-.079.088-.175a2.146,2.146,0,0,1,.186-.7,3.161,3.161,0,0,0,.212-.665c0-.079.048-.144.108-.144a2.479,2.479,0,0,0,.345-.91,3.1,3.1,0,0,1,.32-.91,2.708,2.708,0,0,0,.315-.841c.128-.463.264-.806.3-.765a4.814,4.814,0,0,0,.521-1.649c.009-.259-7.707-.4-7.845-.14m12.9.392a6.3,6.3,0,0,0-.266.91c-.041.227-.119.413-.173.413a1.888,1.888,0,0,0-.317.735,3.375,3.375,0,0,1-.311.805,3.817,3.817,0,0,0-.319.875,3.069,3.069,0,0,1-.346.885.161.161,0,0,0-.044.21c.04.072.023.13-.039.13s-.191.315-.287.7a1.73,1.73,0,0,1-.265.7c-.05,0-.13.173-.177.385a8.412,8.412,0,0,1-.385,1.085,12.072,12.072,0,0,0-.46,1.295,1.371,1.371,0,0,1-.249.6,2.58,2.58,0,0,0-.32.84,2.459,2.459,0,0,1-.325.84,2.828,2.828,0,0,0-.33.91,2.987,2.987,0,0,1-.324.91,2.263,2.263,0,0,0-.307.77,2.334,2.334,0,0,1-.3.77,1.73,1.73,0,0,0-.255.665,6.407,6.407,0,0,1-.389,1.085,6.775,6.775,0,0,0-.4,1.085,1.682,1.682,0,0,1-.266.665c-.047,0-.125.173-.172.385a8.387,8.387,0,0,1-.385,1.085,12.118,12.118,0,0,0-.46,1.3c-.089.327-.2.595-.253.595a1.574,1.574,0,0,0-.253.665,4.946,4.946,0,0,1-.342.984.615.615,0,0,0-.091.476c.051.092.032.119-.047.066s-.2.182-.3.609a1.7,1.7,0,0,1-.256.7,2.128,2.128,0,0,0-.314.77,2.078,2.078,0,0,1-.316.77c-.052,0-.129.193-.173.428a12.15,12.15,0,0,1-.528,1.547,8.2,8.2,0,0,0-.45,1.322c0,.112-.047.2-.1.2a2.218,2.218,0,0,0-.334.84c-.127.462-.289.84-.359.84s-.1.126-.062.28.023.25-.03.214-.168.2-.256.515a4.62,4.62,0,0,1-.329.871,4.165,4.165,0,0,0-.313.885c-.079.327-.192.595-.251.595a2.479,2.479,0,0,0-.345.91,2.792,2.792,0,0,1-.331.91,4.036,4.036,0,0,0-.414,1.3.363.363,0,0,1-.149.21,1.108,1.108,0,0,0-.232.52,8.166,8.166,0,0,1-.391,1.12,12.073,12.073,0,0,0-.46,1.295,1.371,1.371,0,0,1-.249.595,2.585,2.585,0,0,0-.32.84,1.972,1.972,0,0,1-.354.84c-.067,0-.088.094-.048.21s.018.21-.05.21-.124.114-.124.254a4.387,4.387,0,0,1-.384,1.076,4.431,4.431,0,0,0-.384,1.065.752.752,0,0,1-.164.429,4.3,4.3,0,0,0-.416,1.025,4.413,4.413,0,0,1-.413,1.025.916.916,0,0,0-.16.516.6.6,0,0,1-.13.42.163.163,0,0,0-.063.207c.037.065-.011.2-.106.308a3.641,3.641,0,0,0-.405.956,6.563,6.563,0,0,1-.4,1.052,2.01,2.01,0,0,0-.217.56,1.972,1.972,0,0,1-.363.911.684.684,0,0,0-.15.35A6.214,6.214,0,0,1,143.187,93a.527.527,0,0,0-.044.42c.049.093.04.121-.019.062s-.19.161-.291.49a2,2,0,0,1-.314.686.194.194,0,0,0-.038.252c.069.121.146.117.3-.019.19-.163.194-.156.037.063a.565.565,0,0,1-.348.245c-.094,0-.232.247-.307.549a1.2,1.2,0,0,1-.268.6c-.073.027-.144.277-.158.557s-.06.485-.1.457-.146.2-.229.5-.2.555-.259.555c-.093,0-.164.233-.339,1.106a.589.589,0,0,1-.208.315c-.137.1-.132.145.023.257s.155.138-.047.14c-.176,0-.221.076-.172.282.037.154.015.245-.049.2s-.116.006-.116.11a2.547,2.547,0,0,1-.234.69,2.133,2.133,0,0,0-.214.793c.011.161-.023.263-.076.227-.092-.062-.448.891-.4,1.079.012.05-.063.168-.166.262a.559.559,0,0,0-.188.319,3.4,3.4,0,0,1-.246.718c-.135.313-.337.871-.448,1.239a5.732,5.732,0,0,1-.409,1.015c-.114.189-.154.345-.089.345.208,0,.528-.341.591-.63.072-.328.018,18.98-.055,19.6-.057.484-.248.775-.433.663-.07-.043-.087-.028-.037.033a.376.376,0,0,1-.022.343c-.087.177-.055.237.133.253a.2.2,0,0,0,.247-.189c0-.122-.067-.173-.16-.121s-.055-.005.074-.12a.914.914,0,0,0,.269-.4,2.857,2.857,0,0,1,.13-.425.546.546,0,0,0,0-.407c-.06-.107-.041-.132.052-.069s.211-.052.306-.282c.129-.309.127-.394-.009-.443-.118-.043-.089-.121.1-.264a.7.7,0,0,0,.265-.475c0-.15.053-.272.119-.272s.211-.347.324-.77.264-.77.335-.77.116-.079.1-.175a1.141,1.141,0,0,1,.144-.525,1.4,1.4,0,0,0,.161-.42c-.042-.183.142-.7.25-.7.067,0,.089-.058.049-.128a.119.119,0,0,1,.062-.177c.074-.027.147-.278.161-.559s.069-.48.122-.444.1-.033.1-.153.051-.218.114-.218.153-.173.2-.385a8.669,8.669,0,0,1,.4-1.124,2.069,2.069,0,0,0,.24-.875c-.042-.075-.009-.137.074-.137s.122-.117.083-.28-.015-.245.049-.2.116-.02.116-.14.064-.218.143-.218.114-.123.076-.28-.011-.28.057-.28.088-.063.044-.14-.009-.14.078-.14.119-.041.073-.092-.021-.176.057-.278a.469.469,0,0,0,.07-.391c-.045-.128-.011-.179.092-.136s.242-.232.4-.847a2.833,2.833,0,0,1,.332-.916c.051,0,.137-.2.191-.455s.11-.487.124-.525.066-.211.118-.383.134-.286.184-.252.2-.345.326-.842a2.221,2.221,0,0,1,.357-.9c.067,0,.088-.094.048-.21s-.025-.21.034-.21.18-.283.269-.63.218-.63.286-.63.092-.095.052-.21-.023-.21.038-.21.186-.315.276-.7a1.668,1.668,0,0,1,.258-.7c.051,0,.163-.236.248-.525s.269-.806.409-1.149a7.114,7.114,0,0,0,.28-.77c.063-.373.227-.776.317-.776a2.647,2.647,0,0,0,.337-.91,3.09,3.09,0,0,1,.321-.91,2.692,2.692,0,0,0,.314-.835c.127-.46.28-.8.34-.762.094.064.171-.356.125-.677a.093.093,0,0,1,.1-.1c.063,0,.152-.221.2-.49s.13-.49.186-.49a2.264,2.264,0,0,0,.335-.84,2.459,2.459,0,0,1,.325-.84,2.823,2.823,0,0,0,.33-.91,2.936,2.936,0,0,1,.326-.91c.048,0,.157-.236.241-.525s.291-.858.458-1.264a4.716,4.716,0,0,0,.3-.914,1.13,1.13,0,0,1,.172-.451,6.431,6.431,0,0,0,.415-1.046,4.56,4.56,0,0,1,.322-.84,4.426,4.426,0,0,0,.31-.838,7.5,7.5,0,0,1,.466-1.19,1.855,1.855,0,0,0,.236-.634,2.428,2.428,0,0,1,.246-.714,6.471,6.471,0,0,0,.389-1.083c.079-.319.192-.581.251-.581a2.479,2.479,0,0,0,.346-.91,2.993,2.993,0,0,1,.324-.91,2.263,2.263,0,0,0,.307-.77,2.333,2.333,0,0,1,.3-.77,1.737,1.737,0,0,0,.259-.665,7.808,7.808,0,0,1,.4-1.129,7.569,7.569,0,0,0,.392-1.085,1.429,1.429,0,0,1,.258-.621,2.13,2.13,0,0,0,.3-.776,6.6,6.6,0,0,1,.457-1.225,1.982,1.982,0,0,0,.251-.661,2.428,2.428,0,0,1,.246-.714,6.464,6.464,0,0,0,.389-1.083c.079-.32.192-.581.251-.581a2.478,2.478,0,0,0,.345-.91,2.987,2.987,0,0,1,.324-.91,2.44,2.44,0,0,0,.314-.805,3.942,3.942,0,0,1,.317-.875,3.279,3.279,0,0,0,.3-.766,5.036,5.036,0,0,1,.318-.84,5.57,5.57,0,0,0,.331-.914,3.021,3.021,0,0,1,.346-.854.493.493,0,0,0,.151-.28,4.107,4.107,0,0,1,.472-1.386c.054,0,.138-.2.187-.455a5.729,5.729,0,0,1,.341-1.015,10.611,10.611,0,0,0,.438-1.225,1.569,1.569,0,0,1,.282-.665,2.749,2.749,0,0,0,.347-.91,3.439,3.439,0,0,1,.326-.91,3,3,0,0,0,.32-.84,2.872,2.872,0,0,1,.324-.84,2.638,2.638,0,0,0,.308-.805,3.931,3.931,0,0,1,.319-.875,3.75,3.75,0,0,0,.319-.84,3.051,3.051,0,0,1,.348-.854.492.492,0,0,0,.151-.28,4.686,4.686,0,0,1,.458-1.386,2.879,2.879,0,0,0,.321-.875,4.4,4.4,0,0,1,.326-.945,3.555,3.555,0,0,0,.31-.805,1.986,1.986,0,0,1,.313-.735,2.8,2.8,0,0,0,.33-.91,2.946,2.946,0,0,1,.326-.91,2.579,2.579,0,0,0,.32-.84,2.655,2.655,0,0,1,.317-.84,2.459,2.459,0,0,0,.315-.8,7.055,7.055,0,0,1,.393-1.085,4.862,4.862,0,0,0,.324-.844,2.587,2.587,0,0,1,.239-.63,4.522,4.522,0,0,0,.323-.84,4.029,4.029,0,0,1,.332-.84,10.559,10.559,0,0,0,.639-2.263c0-.243-.2-.257-3.849-.257H164.31l-.19.5M136.882,75.283c-.124.03-.189.12-.144.2a.2.2,0,0,1-.075.251.712.712,0,0,0-.177.474c-.011.2-.063.368-.116.368s-.1.121-.1.27a.855.855,0,0,1-.2.493.5.5,0,0,0-.132.43c.04.113.023.206-.038.206s-.146.11-.189.245.051.086.243-.148a1.4,1.4,0,0,0,.321-.657.473.473,0,0,1,.114-.341.962.962,0,0,0,.2-.445,1.5,1.5,0,0,1,.271-.573.354.354,0,0,0,.105-.349.21.21,0,0,1,.091-.261c.218-.147.123-.238-.174-.165m-1.494,3.794a3.068,3.068,0,0,0-.265.737c0,.213.19.017.2-.2a.128.128,0,0,1,.155-.13c.085.019.118-.057.076-.177a.512.512,0,0,1,.087-.422c.088-.117.128-.248.088-.292s-.193.175-.339.488M134.8,80.5c-.044.077-.007.14.081.14s.057.082-.076.189-.2.261-.145.35.032.161-.039.161-.193.25-.267.554a1.617,1.617,0,0,1-.261.638.312.312,0,0,0-.125.228c0,.182.274.09.278-.093a1.372,1.372,0,0,1,.146-.416.812.812,0,0,0,.11-.4.757.757,0,0,1,.221-.42,1.29,1.29,0,0,0,.262-.4,1.073,1.073,0,0,1,.018-.14c.128-.457-.011-.722-.2-.385m-16.324,3.518c-.012.185.4,1.129.459,1.06a1.314,1.314,0,0,0-.194-.61c-.143-.3-.262-.5-.265-.45m8.215,2.572c.08.193.163.332.184.309.078-.085-.114-.66-.22-.66-.061,0-.045.158.036.351m.3.77c.11.418.163.494.265.382.042-.046-.021-.23-.14-.408l-.217-.324.092.35m5.207.21c-.08.193-.1.351-.036.351.107,0,.3-.574.22-.66-.021-.023-.1.116-.184.309m-12.318.315a1.07,1.07,0,0,0,.186.393c.179.262.183.261.113-.045s-.3-.579-.3-.348m12.053.269a2.468,2.468,0,0,1-.1.42c-.064.2-.047.221.076.1a.5.5,0,0,0,.1-.42c-.033-.143-.068-.186-.076-.1m-.483,1.242c-.119.339.047.4.206.076.1-.2.1-.292.007-.292-.075,0-.171.1-.212.216m-3.109,1.534c0,.247.366.859.371.622a1.037,1.037,0,0,0-.184-.49c-.1-.149-.188-.209-.188-.132m2.435.329c-.168.343-.174.441-.025.441.116,0,.3-.576.212-.671-.027-.029-.111.074-.187.23m7.29,1.29c0,.081-.059.108-.131.06s-.121-.037-.107.027a1.543,1.543,0,0,1-.124.505,1.469,1.469,0,0,0-.121.49.991.991,0,0,1-.134.415c-.088.173-.122.315-.075.315s.02.085-.059.188-.1.229-.058.28.011.092-.079.092-.131.091-.093.2.02.221-.042.245-.141.233-.174.464-.067.451-.074.49-.068-.024-.137-.14c-.106-.18-.125-.174-.126.035-.006.752.616-.183.694-1.043a.691.691,0,0,1,.169-.273.689.689,0,0,0,.16-.4.673.673,0,0,1,.154-.392c.085-.093.112-.168.061-.168s.052-.3.23-.664c.354-.728.387-.876.2-.876a.14.14,0,0,0-.128.149m-8.965.362a1.143,1.143,0,0,0,.19.548c.173.247.177.227.045-.218-.18-.608-.236-.685-.236-.33m-20.748,2.535a1.067,1.067,0,0,0,.186.393c.179.262.183.261.113-.045s-.3-.579-.3-.348m28.176,1.35c0,.133-.048.209-.107.169s-.107,0-.108.1a2.487,2.487,0,0,1-.1.5c-.064.217-.052.3.034.243a1.968,1.968,0,0,0,.356-1.168c-.042-.046-.077.024-.077.157m-.881,2.311a.223.223,0,0,0-.089.278c.048.085.027.156-.048.156s-.135.094-.135.21c0,.385.212.216.351-.28a3.3,3.3,0,0,0,.118-.488,1.553,1.553,0,0,0-.2.124m-25.374,1.379a1.073,1.073,0,0,0,.186.393c.179.262.183.261.113-.045s-.3-.579-.3-.348m24.777.274a2.057,2.057,0,0,0-.112.344.451.451,0,0,1-.107.2c-.125.137-.125.478,0,.478a2.6,2.6,0,0,0,.373-1.213c-.03-.032-.1.054-.155.192m-.53,1.336a1.143,1.143,0,0,0-.12.28.44.44,0,0,1-.044.14c-.075.1-.1.536-.029.456a.475.475,0,0,0,.1-.223.871.871,0,0,1,.048-.2.859.859,0,0,0,.05-.175,1.127,1.127,0,0,1,.12-.28c.056-.1.073-.175.037-.175s-.109.079-.166.175m-.787,2.181c-.3.716-.354,1-.16.787a4.9,4.9,0,0,0,.474-1.421,2.475,2.475,0,0,0-.315.634m-1.014,2.537c-.086.15-.113.3-.061.338s.161-.088.241-.274c.175-.4.041-.452-.181-.065m-.314.934a1.627,1.627,0,0,1-.293.506c-.076.06-.042.1.081.1s.271-.183.353-.44c.181-.568.072-.7-.141-.17m5.11.356c-.184.352-.2.465-.064.557s.108.116-.058.117a.242.242,0,0,0-.24.212c-.03.4-.048.467-.144.572a.63.63,0,0,0-.1.355.474.474,0,0,1-.172.362c-.245.16-.366.744-.134.647a.316.316,0,0,0,.177-.27c0-.107.058-.2.128-.2s.128-.185.128-.412a.777.777,0,0,1,.247-.6c.313-.24.5-.945.247-.951-.114,0-.1-.054.053-.149.125-.08.193-.2.152-.276s-.013-.131.061-.131a.138.138,0,0,0,.136-.14c0-.273-.195-.133-.422.3m-13.086.027c-.037.126-.094.324-.127.44s-.031.21,0,.21a1.32,1.32,0,0,0,.256-.81c-.035-.039-.095.033-.131.16m-1.2,3.257c-.085.2-.125.4-.089.44s.126-.1.2-.318a.974.974,0,0,0,.088-.44c-.026-.028-.116.115-.2.317m13.088.018a3.627,3.627,0,0,1-.131.35c-.089.179.063.115.274-.115a.75.75,0,0,0,.2-.35c0-.227-.261-.14-.344.115m-.392.863a3.105,3.105,0,0,1-.129.337c-.032.064.063.033.21-.067.337-.23.435-.492.184-.492a.315.315,0,0,0-.264.222m-.893,2.438c-.2.618-.238.9-.138,1s.112.086.051-.032a.667.667,0,0,1,.074-.49c.259-.507.468-1.226.376-1.288-.047-.032-.21.331-.362.806m-5.906,1.907c-.075.235-.088.427-.029.427.118,0,.311-.7.221-.794-.031-.033-.117.132-.192.367m5.18.085c-.1.288,0,.447.174.261a.292.292,0,0,0,.016-.318c-.083-.145-.123-.133-.19.057m-.313.657a1.032,1.032,0,0,1-.127.49c-.088.173-.109.315-.048.315.115,0,.409-.609.409-.847a.134.134,0,0,0-.134-.133c-.073,0-.119.079-.1.175m-.65,1.808c-.175.55-.07.721.116.186a4.631,4.631,0,0,1,.2-.509c.037-.066.012-.12-.055-.12s-.187.2-.265.443m-5.637,1.216c-.209.427-.166.546.067.183.113-.176.175-.353.138-.393s-.129.054-.205.21m4.947.581c-.037.154-.015.315.049.358s.116.017.116-.058a1.393,1.393,0,0,1,.078-.359c.043-.122.021-.222-.049-.222s-.157.126-.194.28m-1.2,3.185a3.551,3.551,0,0,1-.131.35c-.028.058-.005.1.052.1s.17-.158.251-.35.1-.349.028-.349-.156.11-.2.245m-.715,1.846c-.038.159-.02.289.039.289.184,0,.288-.3.155-.441-.082-.089-.149-.036-.195.152m6.887,2.109a.317.317,0,0,0,0,.28c.044.077.02.14-.053.14s-.1.088-.063.2a.26.26,0,0,1-.068.288.505.505,0,0,0-.137.372c0,.176-.055.243-.148.18s-.113-.039-.056.061.027.162-.052.162-.11.059-.069.13a.176.176,0,0,1-.066.224.252.252,0,0,0-.074.279.333.333,0,0,1-.091.327.941.941,0,0,0-.185.525,1.3,1.3,0,0,1-.2.6.7.7,0,0,0-.139.465c.022.149-.044.245-.17.245-.164,0-.174.036-.047.174.2.216.437-.11.355-.484a.466.466,0,0,1,.127-.4.655.655,0,0,0,.179-.425c0-.145.061-.263.136-.263s.1-.064.056-.141.01-.24.12-.36a.766.766,0,0,0,.2-.415,3,3,0,0,1,.278-.778,2.888,2.888,0,0,0,.278-.978c0-.218.048-.364.107-.324s.107.005.107-.076c0-.188-.215-.194-.32-.008m-8.09,1.06a.394.394,0,0,0,.052.36c.087.095.129.023.129-.219,0-.41-.068-.463-.181-.141m-19.373,6.01a1.628,1.628,0,0,0,.183.49c.1.192.183.287.183.21a1.64,1.64,0,0,0-.183-.49c-.1-.192-.183-.287-.183-.21m24.731.585a6.877,6.877,0,0,0-.553,1.866,1.481,1.481,0,0,0,.26-.63c.094-.346.215-.63.27-.63.116,0,.3-.7.208-.8-.033-.036-.117.051-.186.193M134.1,137.9c0,.081-.052.113-.116.07s-.083.061-.042.233c.052.217.092.249.133.1a1.459,1.459,0,0,1,.186-.381c.085-.118.08-.175-.018-.175a.147.147,0,0,0-.144.149m-.4.867a2.869,2.869,0,0,0,0,.4.563.563,0,0,1-.177.4.58.58,0,0,0-.2.323c0,.079.115,0,.256-.179a1.165,1.165,0,0,0,.256-.5,1.471,1.471,0,0,1,.078-.4c.043-.122.014-.222-.064-.222a.179.179,0,0,0-.156.175" transform="translate(-9.227 0.005)"/><path class="e" d="M80.16.272c-.1.173-.111.306-.032.359a.317.317,0,0,1,.126.234c0,.091-.088.076-.224-.038S79.847.693,79.9.758a.422.422,0,0,1-.031.369c-.085.174-.074.271.037.32.091.04.06.075-.073.081s-.2.07-.158.141a.164.164,0,0,1-.049.213.407.407,0,0,0-.073.36c.027.153-.012.277-.085.277s-.1.1-.058.217c.048.136.024.182-.064.123s-.111.007-.049.22c.05.173.042.282-.018.242s-.184.015-.275.122-.133.2-.093.2-.006.141-.1.315a1.351,1.351,0,0,0-.148.637c.018.228-.028.3-.157.247-.1-.042-.147-.015-.1.062s0,.139-.089.14c-.132,0-.13.028.009.125a.224.224,0,0,1,.088.28.152.152,0,0,1-.209.077c-.066-.044-.119.012-.119.126a1.657,1.657,0,0,1-.085.451c-.063.18-.041.214.084.13s.139-.06.078.047a.346.346,0,0,1-.27.162c-.105,0-.215.215-.267.525a1.526,1.526,0,0,1-.185.595.672.672,0,0,0-.142.35,1.091,1.091,0,0,1-.2.457.629.629,0,0,0-.1.459c.027.155,0,.25-.058.21s-.147.1-.2.311a10.871,10.871,0,0,1-.844,2.134,5.1,5.1,0,0,0-.3.875,2.242,2.242,0,0,1-.323.805c-.052,0-.1.079-.109.175a3.07,3.07,0,0,1-.212.829,2.225,2.225,0,0,0-.12.435,1.043,1.043,0,0,1-.246.441,1.239,1.239,0,0,0-.235.955c.009.058-.042.1-.113.1s-.128.124-.128.276a2.133,2.133,0,0,1-.235.735,3.8,3.8,0,0,0-.426,1.4.09.09,0,0,1-.1.1c-.066,0-.159.136-.207.3s-.178.529-.289.805a1.959,1.959,0,0,0-.172.625.679.679,0,0,1-.188.385c-.12.144-.168.262-.108.262s.04.076-.044.168a.732.732,0,0,0-.153.428c0,.169-.057.225-.16.16-.088-.056-.121-.053-.074,0a5.218,5.218,0,0,1-.667,2.143,5.4,5.4,0,0,0-.379,1.087c0,.115-.046.21-.1.21s-.109.119-.119.265a6.269,6.269,0,0,1-.391,1.155c-.2.49-.449,1.111-.543,1.38a4.6,4.6,0,0,1-.259.63,2.068,2.068,0,0,0-.167.5,7.377,7.377,0,0,1-.3.91c-.121.3-.227.584-.234.622s-.193.48-.411.98a12,12,0,0,0-.543,1.5c-.08.327-.2.6-.257.6s-.079.136-.039.3.02.267-.048.222-.228.292-.362.748a2.168,2.168,0,0,1-.349.829.085.085,0,0,0-.086.105.821.821,0,0,1-.053.315,5.711,5.711,0,0,0-.152.6c-.048.241-.134.353-.223.294s-.109-.035-.063.046a10.576,10.576,0,0,1-.937,2.77c-.061.154-.266.721-.456,1.26a9.438,9.438,0,0,1-.522,1.256,1.155,1.155,0,0,0-.176.5,3.065,3.065,0,0,1-.3.844,6.022,6.022,0,0,0-.385.995c-.048.208-.137.523-.2.7a2.29,2.29,0,0,0-.116.446.327.327,0,0,1-.112.21,7.839,7.839,0,0,0-.536,1.276c-.545,1.513-1.312,3.528-1.411,3.71a.966.966,0,0,0-.09.21c-.007.038-.08.247-.162.464a2.464,2.464,0,0,0-.15.514,2.137,2.137,0,0,1-.184.516,21.16,21.16,0,0,0-.84,2.06,3.8,3.8,0,0,1-.211.616,5.176,5.176,0,0,0-.232.661,14.481,14.481,0,0,1-.579,1.54c-.464,1.142-1.155,3.035-1.155,3.162a1.748,1.748,0,0,1-.188.526A13.791,13.791,0,0,0,56.636,63c-.013.087-.408,1.14-.654,1.746-.094.231-.241.672-.327.98a1.838,1.838,0,0,1-.274.644.5.5,0,0,0-.154.28,8.155,8.155,0,0,1-.478,1.343,4.266,4.266,0,0,0-.237.7,5.285,5.285,0,0,1-.307.812,22.221,22.221,0,0,0-.789,2.172c-.009.039-.112.3-.228.59a2.885,2.885,0,0,0-.212.735c0,.118-.053.214-.118.214s-.158.2-.208.445a4.255,4.255,0,0,1-.328.91c-.131.255-.211.464-.177.464s-.053.235-.194.523a2.812,2.812,0,0,0-.256.665,3.9,3.9,0,0,1-.275.772c-.151.347-.345.819-.43,1.05s-.25.658-.366.95a3.017,3.017,0,0,0-.211.735c0,.113-.063.205-.142.205s-.109.094-.068.21.023.21-.039.21-.185.312-.275.693-.209.661-.267.623-.07.028-.028.147.009.218-.081.218-.129.113-.09.28.015.245-.049.2-.116-.008-.116.079a5.14,5.14,0,0,1-.32.923,5.226,5.226,0,0,0-.32.919,2.228,2.228,0,0,1-.269.629,1.189,1.189,0,0,0-.2.671.361.361,0,0,1-.1.352,1.746,1.746,0,0,0-.337,1.1c.016.1-.025.153-.091.108s-.2.217-.287.581a2.167,2.167,0,0,1-.3.757c-.083.061-.069.174.041.318.146.193.139.211-.058.129-.162-.068-.21-.039-.168.1a.465.465,0,0,1-.118.39.432.432,0,0,0-.115.375.2.2,0,0,1-.095.246,1.858,1.858,0,0,0-.376,1.262c.047.084.011.093-.09.025-.125-.085-.149-.036-.1.189.04.166.024.27-.035.23a.136.136,0,0,0-.188.07c-.044.078-.02.142.055.142s.014.133-.135.3a.781.781,0,0,0-.2.758,1.315,1.315,0,0,1,.013.522c-.332.363,0,24.044.336,24.044.068,0,.123.1.123.218s.044.189.1.152.1.125.114.359a.809.809,0,0,0,.165.525.262.262,0,0,1,.124.228c-.044.225.289,1.039.4.967.057-.038.073.056.037.21a.944.944,0,0,0,.12.6,4.7,4.7,0,0,1,.352.875,6.256,6.256,0,0,0,.37.951c.149.281.166.419.061.49a4.125,4.125,0,0,0-.457,1.115c-.171.559-.359.968-.417.91s-.073.036-.034.209.023.315-.035.315a2.888,2.888,0,0,0-.449,1.308.548.548,0,0,1-.186.37.792.792,0,0,0-.181.533c-.008.232-.054.395-.1.363s-.124.005-.168.084.024.146.151.151c.187.007.176.033-.057.136a.482.482,0,0,0-.291.446c0,.272-.035.249-.217-.157-.118-.262-.239-.4-.269-.3a.288.288,0,0,0,.122.3c.143.1.182,1.114.212,5.443l.036,5.325H43.512c-1.412,0-1.932-.046-1.979-.175-.039-.1-.069-.077-.075.07-.009.228.26.245,3.958.245h3.969l.144-.628c.08-.346.191-.6.247-.56s.086-.089.067-.282.013-.351.073-.351.144-.157.188-.35.141-.35.216-.35.1-.036.062-.081c-.068-.074.113-.606.629-1.856a1.014,1.014,0,0,0,.124-.542c-.038-.041.015-.166.117-.278a.814.814,0,0,0,.186-.473c0-.149.058-.27.128-.27s.131-.11.133-.245.086,0,.184.3a1.83,1.83,0,0,0,.3.63,1.366,1.366,0,0,1,.216.616,1.8,1.8,0,0,0,.262.718c.094.1.145.215.114.249a1.755,1.755,0,0,0,.208.663,5.942,5.942,0,0,1,.31.83,5.683,5.683,0,0,0,.31.817,3.086,3.086,0,0,1,.265.8c0,.119.057.217.128.217s.114.079.1.175c-.052.286,7.848.251,7.972-.035.205-.472.493-1.237.764-2.03.158-.462.364-1.03.458-1.262a5.4,5.4,0,0,0,.464-1.363c-.011-.058.037-.1.107-.1s.128-.1.128-.216a5.572,5.572,0,0,1,.384-1.114,5.1,5.1,0,0,0,.384-1.176.5.5,0,0,1,.128-.364.5.5,0,0,0,.128-.363.4.4,0,0,1,.192-.357.436.436,0,0,0,.192-.384,1.365,1.365,0,0,1,.2-.615c.109-.171.167-.311.128-.311s.044-.235.185-.523a2.49,2.49,0,0,0,.256-.823.724.724,0,0,1,.191-.473c.1-.1.164-.22.132-.277s.024-.223.125-.369a1.072,1.072,0,0,0,.188-.449,4.893,4.893,0,0,1,.332-.941,4.9,4.9,0,0,0,.348-1.041c.011-.156.068-.284.128-.284s.076-.058.036-.128a.12.12,0,0,1,.063-.177.358.358,0,0,0,.173-.257,9.992,9.992,0,0,1,.422-1.257c.044-.116.09-.242.1-.28s.118-.318.239-.622a7.87,7.87,0,0,0,.294-.875c.041-.177.129-.323.2-.323s.087-.06.046-.134a1.332,1.332,0,0,1,.317-.846.794.794,0,0,0,.1-.308,7.645,7.645,0,0,1,.352-1.019,4.865,4.865,0,0,0,.316-.988c0-.113.045-.206.1-.206s.177-.287.272-.638a2.71,2.71,0,0,1,.348-.83.721.721,0,0,0,.176-.409,5.808,5.808,0,0,1,.384-1.133,6.275,6.275,0,0,0,.382-1.089,4.074,4.074,0,0,1,.312-.871,17.018,17.018,0,0,0,1.1-3.14c0-.16.051-.29.113-.29a2.105,2.105,0,0,0,.4-.8c.156-.443.33-.931.387-1.085s.148-.406.2-.56.109-.311.125-.35.07-.212.122-.385.144-.315.207-.315a.087.087,0,0,0,.092-.1c-.048-.237.187-.875.323-.877.086,0,.073-.052-.032-.125-.145-.1-.127-.182.1-.444a.893.893,0,0,0,.247-.47,1.037,1.037,0,0,1,.133-.464c.087-.173.118-.315.066-.315s.019-.1.155-.22.162-.172.057-.113c-.17.095-.171.078,0-.149a1.136,1.136,0,0,0,.206-.411c.03-.3.212-.786.3-.786.047,0,.1-.17.114-.377a.764.764,0,0,1,.159-.465.787.787,0,0,0,.19-.427c.033-.186.118-.36.19-.387a.116.116,0,0,0,.06-.172c-.039-.068.024-.28.138-.472a.675.675,0,0,0,.126-.494c-.046-.08-.024-.146.048-.146s.2-.252.284-.56.2-.56.25-.56.079-.11.058-.245a1.047,1.047,0,0,1,.142-.56c.1-.173.136-.316.082-.317s-.042-.048.029-.1a1.8,1.8,0,0,0,.448-.919,6.082,6.082,0,0,1,.565-1.508.652.652,0,0,0,.041-.617c-.1-.2-.09-.236.074-.167.149.062.182.024.124-.141s-.03-.192.076-.121.133.009.075-.242c-.044-.191-.018-.388.057-.439s.107,0,.054.16c-.046.138-.043.214.005.166.14-.135.209-.7.075-.61-.066.044-.085-.017-.044-.136s.123-.218.18-.218.142-.189.189-.42.166-.42.282-.42c.149,0,.163-.045.057-.185a.231.231,0,0,1,.01-.35c.083-.091.108-.165.056-.165s-.021-.088.07-.2.208-.166.261-.132.1-.035.1-.154-.058-.218-.128-.218-.006-.133.143-.3c.207-.226.232-.322.107-.407s-.067-.208.209-.486c.205-.206.279-.343.163-.3-.156.054-.193,0-.145-.2.035-.148.138-.27.228-.27a.313.313,0,0,0,.241-.222c.106-.3.1-.369-.032-.281-.06.041-.081-.087-.047-.284.046-.262.092-.308.172-.171s.109.1.111-.127c0-.173.06-.315.13-.315s.128-.1.128-.218-.06-.177-.148-.118-.113.038-.056-.062a.411.411,0,0,1,.308-.173c.133-.007.155-.038.057-.081a.265.265,0,0,1-.16-.207c0-.075.057-.1.127-.051s.095,0,.055-.119.031-.24.2-.3c.262-.091.264-.1.041-.293-.2-.166-.2-.185-.018-.117s.2.015.149-.245c-.042-.209-.026-.265.046-.155s.155.048.256-.245c.079-.23.091-.416.026-.416s-.117-.07-.117-.155.083-.12.186-.077c.13.055.162.011.106-.148s-.033-.195.1-.106.144.068-.01-.144c-.112-.153-.125-.22-.032-.158s.16.038.16-.043a.149.149,0,0,0-.149-.148c-.082,0-.115-.038-.072-.085s.2.01.35.125c.2.152.227.23.1.283s-.1.077.044.085.2.116.179.351a1.074,1.074,0,0,0,.072.525c.058.1.122-2.476.141-5.73l.036-5.914H82.271a6,6,0,0,0-2.145.148c0,.081-.054.112-.119.068-.144-.1-.314.424-.2.622.044.078-.016.141-.133.141-.14,0-.187.074-.137.217.042.12.026.183-.037.141s-.148.021-.189.14-.022.18.05.131c.194-.131.151.024-.074.271-.111.121-.14.22-.064.22a.147.147,0,0,1,.138.155c0,.085-.09.117-.2.071-.155-.064-.181-.019-.118.2.053.184.028.269-.072.244a.2.2,0,0,0-.219.156c-.043.13-.006.161.112.095.1-.055.078-.011-.043.1-.174.156-.187.235-.064.381s.119.161-.023.072-.164-.028-.113.263c.057.33.033.363-.2.281s-.249-.067-.1.135.143.242-.032.315c-.113.048-.174.143-.135.212s0,.125-.081.125c-.107,0-.1.07.025.237.1.13.109.194.029.141s-.181,0-.223.12c-.05.141-.021.188.083.133.087-.046.029.021-.129.15a.838.838,0,0,0-.288.564,1.162,1.162,0,0,1-.219.611,5.449,5.449,0,0,0-.614,1.733,1.283,1.283,0,0,1-.186.433c-.072.1-.094.215-.048.265s-.005.2-.114.337a1.924,1.924,0,0,0-.291.6,18.309,18.309,0,0,1-.772,2.03,10.081,10.081,0,0,0-.511,1.47c-.008.038-.12.322-.25.63a2.879,2.879,0,0,0-.22.654,7.794,7.794,0,0,1-.416,1.114,4.4,4.4,0,0,0-.39,1.263c.031.173-.016.218-.162.157-.13-.055-.173-.03-.117.068a.182.182,0,0,1-.035.237.393.393,0,0,0-.075.351.517.517,0,0,1-.127.427,1.253,1.253,0,0,0-.258.569c-.045.226-.125.411-.176.411a1.816,1.816,0,0,0-.262.735,3.4,3.4,0,0,1-.335.945,1.9,1.9,0,0,0-.259.63,7.414,7.414,0,0,1-.322.98c-.253.617-.658,1.641-.693,1.75-.058.182-.339.9-.566,1.443a9.5,9.5,0,0,0-.4,1.259c-.083.362-.2.657-.26.657a2.179,2.179,0,0,0-.345.843c-.13.464-.276.8-.325.747s-.088.02-.088.161a14.542,14.542,0,0,1-.927,2.729,2,2,0,0,0-.219.644c.031.007-.009.1-.089.21a4.936,4.936,0,0,0-.369,1.072,2.215,2.215,0,0,1-.334.875c-.061,0-.111.122-.111.272a.49.49,0,0,1-.128.359.489.489,0,0,0-.128.358c0,.149-.058.272-.128.272s-.118.047-.106.1a1.359,1.359,0,0,1-.111.455,16.4,16.4,0,0,0-.723,2.1.849.849,0,0,1-.182.4.324.324,0,0,0-.088.315c.04.071.022.129-.039.129a1.961,1.961,0,0,0-.342.8,5.314,5.314,0,0,1-.344.96,5.883,5.883,0,0,0-.369.965,6.086,6.086,0,0,1-.367.964,3.472,3.472,0,0,0-.275.715,4.21,4.21,0,0,1-.337.836,1.155,1.155,0,0,0-.174.5,2.715,2.715,0,0,1-.252.76,1.362,1.362,0,0,0-.184.66c.037.065.013.119-.053.119s-.185.278-.263.619a2.394,2.394,0,0,1-.34.835c-.109.119-.186.234-.172.256a5.485,5.485,0,0,1-.481,1.475c-.1.173-.144.315-.1.315s.024.079-.046.175a2,2,0,0,0-.216.62,1.349,1.349,0,0,1-.271.613.623.623,0,0,0-.186.395,4.34,4.34,0,0,1-.578,1.652.752.752,0,0,0-.188.423,14.592,14.592,0,0,1-.868,2.423,1.983,1.983,0,0,0-.178.6.847.847,0,0,1-.163.407l-.188.294-.121-.337c-.067-.185-.267-.714-.446-1.176a12.329,12.329,0,0,1-.411-1.226,1.008,1.008,0,0,0-.2-.465.16.16,0,0,1-.042-.209c.04-.072.019-.13-.048-.13s-.158-.159-.2-.354a9.639,9.639,0,0,0-.4-1.111,4.722,4.722,0,0,1-.317-.945,1.34,1.34,0,0,0-.214-.522c-.118-.184-.153-.293-.078-.242s.173-.07.223-.292a8.52,8.52,0,0,1,.4-1.11,4.187,4.187,0,0,0,.312-.937.4.4,0,0,1,.13-.3.169.169,0,0,0,.056-.218c-.04-.072-.014-.13.059-.13s.227-.362.345-.805a3.637,3.637,0,0,1,.3-.875,3.591,3.591,0,0,0,.322-.84,3.511,3.511,0,0,1,.324-.84A5.663,5.663,0,0,0,58.61,115c0-.113.058-.205.128-.205s.128-.093.128-.206a2.313,2.313,0,0,1,.254-.7c.14-.272.226-.494.192-.494s.053-.235.194-.523a2.677,2.677,0,0,0,.256-.689,4.144,4.144,0,0,1,.32-.862,3.893,3.893,0,0,0,.32-.891,1.124,1.124,0,0,1,.178-.471,4.055,4.055,0,0,0,.34-.871c.09-.326.215-.594.278-.594s.082-.058.042-.13a.163.163,0,0,1,.047-.211,2.7,2.7,0,0,0,.339-.815,6.589,6.589,0,0,1,.307-.873,5.02,5.02,0,0,0,.266-.77,6.1,6.1,0,0,1,.409-1.05A5.011,5.011,0,0,0,63.115,103c-.013-.058.038-.1.113-.1s.1-.063.057-.14-.018-.14.057-.14.136-.1.136-.214a11.227,11.227,0,0,1,.925-2.423c.055-.026.064-.112.02-.191a.185.185,0,0,1,.06-.239.647.647,0,0,0,.189-.37,4.647,4.647,0,0,1,.2-.668,2.446,2.446,0,0,0,.148-.525.134.134,0,0,1,.136-.131c.074,0,.1-.063.057-.14s-.018-.14.057-.14.136-.144.136-.319a1.343,1.343,0,0,1,.188-.612c.1-.161.151-.332.107-.381s-.024-.088.045-.088a2.585,2.585,0,0,0,.42-.98,2.667,2.667,0,0,1,.415-.98c.067,0,.09-.056.052-.123a1.107,1.107,0,0,1,.148-.595,2.854,2.854,0,0,0,.319-1.067c.008-.1.051-.175.1-.175a6.538,6.538,0,0,0,.714-1.75,2.111,2.111,0,0,0,.168-.708c.009-.128.078-.177.164-.118s.113.038.062-.052a1.205,1.205,0,0,1,.166-.687A5.428,5.428,0,0,0,69,87.462c-.011-.058.037-.1.107-.1s.118-.047.107-.1c-.037-.181.173-.875.264-.875.048,0,.095-.117.1-.261A5.77,5.77,0,0,1,69.977,85c.2-.469.309-.811.233-.76s-.036-.078.089-.286.2-.379.158-.379.083-.262.268-.582a4.171,4.171,0,0,0,.361-.735,6.678,6.678,0,0,1,.487-1.442.317.317,0,0,0,.046-.3c-.042-.074.008-.227.111-.339A1.5,1.5,0,0,0,72,79.6a.982.982,0,0,1,.186-.437c.056-.038.073-.21.039-.384-.05-.253-.036-.274.074-.1.122.186.139.186.149,0a1.4,1.4,0,0,1,.212-.826.573.573,0,0,0,.09-.4c-.01-.171.025-.282.079-.246.114.077.252-.268.252-.629a.386.386,0,0,1,.2-.338.174.174,0,0,0,.115-.235,3.3,3.3,0,0,1,.614-1.508c.053-.026.063-.107.021-.181a.365.365,0,0,1,.079-.338c.085-.112.112-.2.059-.2s-.024-.095.064-.21.123-.21.078-.21.055-.237.222-.525a4.431,4.431,0,0,0,.322-.63c.01-.058.025-.152.033-.21.07-.5.266-1.015.384-1.015a.087.087,0,0,0,.093-.1,1.64,1.64,0,0,1,.128-.5,2.463,2.463,0,0,0,.149-.516,2.456,2.456,0,0,1,.148-.516,4.862,4.862,0,0,0,.18-.566,1.061,1.061,0,0,1,.236-.4.79.79,0,0,0,.193-.712c-.006-.049.054-.133.133-.186a.935.935,0,0,0,.211-.5A1.182,1.182,0,0,1,76.9,66.5a.592.592,0,0,0,.13-.283.375.375,0,0,1,.161-.257.116.116,0,0,0,.049-.171.637.637,0,0,1,.124-.448A2.087,2.087,0,0,0,77.6,64.7a.741.741,0,0,1,.227-.448c.1-.069.133-.127.071-.129s-.033-.109.064-.239c.15-.2.149-.219-.007-.117s-.139.052.018-.192a.9.9,0,0,0,.135-.583c-.035-.149,0-.271.078-.271s.143-.1.143-.218.055-.181.121-.137.1-.045.072-.2a.681.681,0,0,1,.155-.507c.172-.188.176-.244.028-.344s-.137-.137.043-.212c.121-.051.188-.149.149-.218s-.006-.125.073-.125.112-.113.063-.28c-.056-.192-.023-.28.1-.28.1,0,.216-.126.253-.28s.023-.25-.031-.214-.071-.089-.037-.278.108-.312.167-.272.168-.052.242-.2c.163-.333.176-.618.023-.515-.061.041-.02-.144.091-.411a1.141,1.141,0,0,1,.42-.562c.163-.056.2-.189.16-.525q-.057-.448.059-.262c.087.141.151.079.256-.25.081-.254.088-.4.017-.355s-.123-.022-.123-.15c0-.146.069-.2.186-.156s.162.011.12-.107a.476.476,0,0,1,.135-.4c.262-.286.253-.39-.024-.282-.158.061-.134,0,.079-.21a.57.57,0,0,0,.225-.519c-.043-.122-.032-.191.023-.153a.306.306,0,0,0,.286-.06c.155-.107.148-.129-.038-.131-.123,0-.224-.063-.224-.137s.081-.1.179-.06a.226.226,0,0,0,.276-.1c.062-.109.044-.135-.051-.071-.215.145-.181-.04.054-.3.164-.179.17-.242.032-.338-.122-.085-.126-.118-.013-.12.086,0,.123-.1.083-.212-.052-.146.009-.21.2-.21.243,0,.257-.035.123-.308-.109-.222-.111-.323-.009-.36.336-.122.781-1.186.832-1.992a1.092,1.092,0,0,1,.279-.605c.141-.141.184-.216.1-.167s-.16.022-.16-.06a.143.143,0,0,1,.136-.148c.074,0,.1-.056.066-.124s.05-.291.2-.5a.974.974,0,0,0,.207-.629c-.047-.2,0-.24.179-.188.231.066.24-.114.24-4.987V37.239H82.367c-2.668,0-2.642-.259.032-.315l2.017-.042-2.081-.031c-2.252-.034-2.118-.078-2.116.7,0,.135-.052.245-.118.245s-.083.063-.04.14-.025.145-.152.151-.166.04-.085.077c.193.086.064.612-.15.612-.091,0-.149.11-.129.245a.65.65,0,0,1-.086.414.341.341,0,0,0-.028.336c.058.1.041.131-.044.074a.16.16,0,0,0-.228.064.2.2,0,0,0,.066.263c.1.071.063.131-.128.186-.222.064-.27.157-.221.435.039.221.013.321-.069.266s-.1,0-.051.14a.289.289,0,0,1-.044.313.159.159,0,0,0-.056.2.172.172,0,0,1-.071.215.26.26,0,0,0-.07.29c.038.108.013.2-.055.2s-.128-.079-.133-.175-.057-.049-.116.1a1.2,1.2,0,0,0-.046.572.472.472,0,0,1-.239.507.879.879,0,0,0-.328.585,1.88,1.88,0,0,1-.212.683,13.261,13.261,0,0,0-.588,1.428c-.222.613-.441,1.181-.487,1.26a.944.944,0,0,0-.1.214c-.007.039-.051.181-.1.315l-.17.49c-.047.135-.091.277-.1.315a1.186,1.186,0,0,1-.114.245c-.056.1-.055.176,0,.177s.031.053-.059.115a.787.787,0,0,0-.221.443.788.788,0,0,1-.221.443c-.09.062-.113.114-.051.115s.055.081-.015.177a6.931,6.931,0,0,0-.481,1.365,5.053,5.053,0,0,1-.235.529,1.053,1.053,0,0,0-.154.583.117.117,0,0,1-.064.173c-.074.027-.144.185-.155.352s-.057.279-.1.25-.179.29-.3.71-.278.764-.348.764-.116.079-.1.175a1.236,1.236,0,0,1-.069.455,9.193,9.193,0,0,1-.592,1.47,3.219,3.219,0,0,0-.244.735c-.092.366-.216.665-.275.665s-.077.088-.039.2a.261.261,0,0,1-.07.29.176.176,0,0,0-.066.224c.041.072.013.13-.062.13s-.136.151-.136.335a.474.474,0,0,1-.193.416c-.106.045-.182.13-.168.19a2.339,2.339,0,0,1-.191.651,3.016,3.016,0,0,0-.216.805c0,.145-.053.262-.118.262a2.746,2.746,0,0,0-.459,1.12c-.007.039-.139.366-.294.727a4.5,4.5,0,0,0-.282.786,21.959,21.959,0,0,1-.879,2.267,10.006,10.006,0,0,0-.334,1.013,3.121,3.121,0,0,1-.4.962.591.591,0,0,0-.175.378,3.058,3.058,0,0,1-.246.788c-.135.313-.338.874-.45,1.247a3.166,3.166,0,0,1-.371.859,3.037,3.037,0,0,0-.327.968c-.089.432-.224.786-.3.786s-.1.04-.058.09,0,.254-.1.455a17.039,17.039,0,0,0-.917,2.357A7.025,7.025,0,0,1,64.8,78a3.412,3.412,0,0,0-.3.875c0,.123-.058.225-.128.225s-.116.047-.1.1a.841.841,0,0,1-.115.385A2.033,2.033,0,0,0,64,79.97a5.6,5.6,0,0,1-.322,1.016c-.093.231-.355.924-.582,1.54-.616,1.671-1.141,3.021-1.385,3.559a5.616,5.616,0,0,0-.232.56c-.117.67-.232.971-.343.9-.083-.056-.1,0-.052.142.045.128.026.233-.042.233s-.115.047-.1.1a1.14,1.14,0,0,1-.074.385c-.194.574-1.072,2.844-1.22,3.155a3.712,3.712,0,0,0-.193.665c-.05.248-.144.451-.208.451a.084.084,0,0,0-.091.1,4.96,4.96,0,0,1-.6,1.608c-.074.056-.084.1-.023.1s.055.081-.015.177a3.338,3.338,0,0,0-.289.735,3.465,3.465,0,0,1-.275.717,4.719,4.719,0,0,0-.317.91,2.693,2.693,0,0,1-.327.837.492.492,0,0,0-.159.28,10.437,10.437,0,0,1-.42,1.246,2.548,2.548,0,0,0-.094.28,1,1,0,0,1-.1.221,7.011,7.011,0,0,0-.3.84,3.627,3.627,0,0,1-.294.759,9.536,9.536,0,0,0-.57,1.61.415.415,0,0,1-.123.22.778.778,0,0,0-.15.371,7.111,7.111,0,0,1-.373,1.04,13.336,13.336,0,0,0-.489,1.344c-.092.327-.211.595-.265.595s-.1.094-.1.21a5.445,5.445,0,0,1-.372,1.085,8.845,8.845,0,0,0-.459,1.332c-.048.251-.139.421-.2.378s-.082.019-.04.139.019.217-.052.217-.167.173-.216.383a9.454,9.454,0,0,1-.4,1.124,4.375,4.375,0,0,0-.314.982c0,.206-.025.2-.151-.039a2.045,2.045,0,0,0-.348-.465c-.111-.1-.129-.145-.041-.1s.16,0,.16-.129-.045-.218-.1-.218-.11-.141-.122-.312a.781.781,0,0,0-.244-.49c-.122-.1-.157-.178-.076-.178.129,0-.141-.747-.354-.98a.959.959,0,0,1-.107-.35.969.969,0,0,0-.16-.413.671.671,0,0,1-.117-.381c0-.172-.068-.223-.224-.169-.188.066-.193.055-.032-.069s.166-.2-.026-.609a9.515,9.515,0,0,1-.61-1.634c.01-.03-.031-.093-.092-.14-.223-.175-.431-.855-.262-.858.1,0,.089-.051-.035-.138s-.129-.137-.042-.138c.173,0,.58-.822.489-.983-.033-.059.025-.185.13-.28a.674.674,0,0,0,.19-.436c0-.145.064-.263.143-.263s.117-.146.081-.355-.029-.319.011-.276c.11.121.54-.926.447-1.089-.05-.088-.016-.1.087-.029.125.085.15.036.1-.189-.04-.166-.02-.3.044-.3s.116-.121.116-.27a.783.783,0,0,1,.167-.455,3.617,3.617,0,0,0,.532-1.375c-.037,0,0-.142.092-.315a.973.973,0,0,0,.133-.42c-.015-.058.027-.1.094-.1a1.828,1.828,0,0,0,.344-.805,4.468,4.468,0,0,1,.391-1.026.813.813,0,0,0,.168-.376,14.271,14.271,0,0,1,.925-2.529.3.3,0,0,0,.1-.247,1.2,1.2,0,0,1,.123-.443,22.666,22.666,0,0,0,.927-2.588c.073-.289.176-.525.229-.525a1.524,1.524,0,0,0,.263-.665,2.819,2.819,0,0,1,.254-.735,4.806,4.806,0,0,0,.365-.91c.153-.462.332-.966.4-1.12.121-.283.537-1.341.578-1.47.013-.038.056-.164.1-.28s.177-.525.3-.91a2.94,2.94,0,0,1,.342-.786.2.2,0,0,0,.09-.181,6.42,6.42,0,0,1,.524-1.553,7.178,7.178,0,0,0,.317-.947,1,1,0,0,1,.2-.464.16.16,0,0,0,.042-.209c-.041-.072-.017-.13.052-.13.131,0,.37-.677.478-1.355a1.078,1.078,0,0,1,.274-.571c.116-.1.17-.175.119-.175s0-.189.107-.42.171-.42.137-.42a2.267,2.267,0,0,1,.253-.685,3.63,3.63,0,0,0,.315-.91c0-.123.067-.225.149-.225s.111-.042.063-.094-.01-.225.083-.385a9.082,9.082,0,0,0,.621-1.722.552.552,0,0,1,.1-.249,4.725,4.725,0,0,0,.416-1.365c-.014-.057.035-.1.109-.1s.1-.063.057-.14-.024-.14.042-.14.159-.221.206-.49.139-.49.206-.49.122-.1.122-.212a1.3,1.3,0,0,1,.114-.455c.127-.27.435-1.044.459-1.153a11.62,11.62,0,0,1,.491-1.4c.143-.347.266-.661.273-.7a7.655,7.655,0,0,1,.585-1.54,1.928,1.928,0,0,0,.254-.7c.1-.385.225-.7.287-.7s.079-.06.037-.134a.506.506,0,0,1,.046-.385c.273-.56.89-2.106,1.05-2.631a3.9,3.9,0,0,1,.3-.749,1.06,1.06,0,0,0,.153-.35,4.293,4.293,0,0,1,.187-.581c.089-.231.17-.451.181-.49s.116-.314.235-.612a3.221,3.221,0,0,0,.216-.714,3.617,3.617,0,0,1,.32-.831,4.361,4.361,0,0,0,.32-.774,3.484,3.484,0,0,1,.193-.622c.107-.278.2-.554.216-.612a3.45,3.45,0,0,1,.184-.446.728.728,0,0,0,.1-.455c-.036-.063,0-.115.078-.115s.107-.063.064-.14-.008-.14.078-.14.12-.04.076-.089,0-.22.107-.381a1.3,1.3,0,0,0,.188-.584.8.8,0,0,1,.16-.466.685.685,0,0,0,.168-.273,5.034,5.034,0,0,1,.244-.658,2.324,2.324,0,0,0,.211-.735c-.014-.1.024-.175.085-.175s.189-.315.285-.7.225-.7.287-.7.077-.063.033-.14-.025-.14.041-.14.153-.18.192-.4a9.413,9.413,0,0,1,.464-1.334,6.062,6.062,0,0,0,.391-1.14c0-.113.061-.206.136-.206s.1-.059.062-.13a.171.171,0,0,1,.059-.22.166.166,0,0,0,.064-.21.164.164,0,0,1,.062-.209.473.473,0,0,0,.13-.35.839.839,0,0,1,.2-.482c.111-.121.161-.22.112-.22s-.032-.079.038-.175a2.239,2.239,0,0,0,.213-.7c.048-.289.145-.525.216-.525s.1-.058.057-.129a.325.325,0,0,1,.089-.315,1.1,1.1,0,0,0,.206-.466,1.306,1.306,0,0,1,.192-.482c.119-.163.11-.178-.044-.081-.131.082-.118.028.039-.168a1.261,1.261,0,0,0,.251-.584c.011-.162.069-.3.129-.3s.073-.063.029-.14-.03-.14.031-.14a1.757,1.757,0,0,0,.344-.735,7.365,7.365,0,0,1,.41-1.046,2.209,2.209,0,0,0,.218-.727,1.472,1.472,0,0,1,.18-.6,3.37,3.37,0,0,0,.5-1.583c-.046-.129,0-.21.117-.21.2,0,.49-.641.377-.84a.112.112,0,0,1,.064-.164c.072-.026.157-.2.19-.387a1.182,1.182,0,0,1,.191-.483.55.55,0,0,0,.131-.316,2.474,2.474,0,0,1,.137-.567,3.527,3.527,0,0,0,.139-.464.558.558,0,0,1,.1-.21,3.356,3.356,0,0,0,.255-.665c.085-.289.2-.525.262-.525s.09-.11.07-.245a.729.729,0,0,1,.152-.481.416.416,0,0,0,.1-.385c-.046-.082-.029-.149.038-.149s.156-.1.2-.217.022-.181-.05-.132-.127.019-.127-.063a.143.143,0,0,1,.136-.149c.075,0,.1-.058.063-.129s.02-.23.133-.354a.493.493,0,0,0,.136-.424c-.042-.121-.007-.173.088-.133s.169-.091.188-.371a1.257,1.257,0,0,1,.22-.643c.226-.248.248-.383.039-.242-.083.056-.054-.049.064-.233a1.484,1.484,0,0,0,.214-.666.376.376,0,0,1,.259-.406c.2-.058.227-.115.113-.267s-.1-.193.061-.193c.12,0,.208-.114.208-.272a.491.491,0,0,1,.134-.363c.093-.063.092-.146,0-.272s-.088-.2.048-.259c.12-.05.16-.188.111-.388s-.026-.278.06-.219.17-.008.212-.129c.112-.321.1-.367-.083-.247-.088.059,0-.1.192-.353.38-.5.483-.871.157-.575-.162.147-.182.14-.119-.039a.567.567,0,0,1,.35-.294c.151-.043.234-.122.184-.176s-.025-.182.053-.286c.1-.138.1-.188,0-.188a.15.15,0,0,1-.144-.155c0-.085.083-.12.186-.077.118.05.162.011.121-.107a.521.521,0,0,1,.157-.427A1.192,1.192,0,0,0,82,16.144a1.273,1.273,0,0,1,.185-.545c.083-.11.1-.2.029-.2s-.122-.093-.122-.208c0-.168.037-.175.195-.035s.181.133.111-.073c-.046-.135-.025-.245.048-.245s.092-.07.044-.156a.2.2,0,0,1,.028-.245c.251-.194.551-.847.428-.93-.2-.136-.148-.323.116-.415a.636.636,0,0,0,.233-.9c-.128-.173-.116-.193.069-.117.231.095.271,0,.231-.551a.5.5,0,0,1,.134-.407c.105-.071.122-.046.052.078s-.054.149.044.083a.354.354,0,0,0,.148-.255.816.816,0,0,1,.193-.388c.166-.2.167-.233.005-.233-.1,0-.157.052-.121.117s0,.117-.083.117-.115-.1-.072-.222a1.57,1.57,0,0,0,.078-.275c0-.03.087-.018.192.026.168.071.192-.531.192-4.9V.28H82.378A6.553,6.553,0,0,1,80.36.139c-.024-.078-.114-.018-.2.133M81.439.1c.546.026,1.439.026,1.985,0s.1-.048-.993-.048S80.893.078,81.439.1m-40.56,84.02a.373.373,0,0,0,.106.406c.22.24.251.131.092-.314-.072-.2-.123-.225-.2-.092m.914,2.762a.214.214,0,0,1,.083.268.234.234,0,0,0,.134.286c.113.048.173.142.134.211s-.013.125.057.125.106.128.079.284,0,.247.071.2.121,0,.121.09.032.136.072.093c.107-.117-.294-1.089-.449-1.089a.142.142,0,0,1-.135-.148c0-.082.072-.1.16-.043.109.071.1.029-.016-.132a.508.508,0,0,0-.32-.226c-.1.008-.095.033.009.079m1.113,2.877c-.052.092-.03.19.049.219s.112.159.074.288c-.053.183-.041.194.056.046a.673.673,0,0,0,.061-.455c-.074-.309-.112-.325-.241-.1m.271.814c-.044.078.01.179.12.225s.167.141.128.21.03.236.153.37c.214.232.221.231.136-.014-.049-.142-.125-.41-.167-.6-.081-.353-.235-.435-.37-.2m.525,1.238c-.043.076.009.233.115.35a.742.742,0,0,1,.193.4c0,.27.3.946.421.947.055,0,.039-.125-.037-.279s-.1-.28-.065-.28-.028-.2-.151-.455a3.164,3.164,0,0,1-.227-.548c-.011-.183-.173-.273-.25-.137m.825,2.077a.331.331,0,0,0,.126.255.169.169,0,0,1,.056.218c-.092.162.077.165.307.006.121-.084.131-.149.032-.216-.078-.052-.142-.048-.142.009s-.085-.017-.188-.167-.19-.2-.192-.1m-6.21,4a1.48,1.48,0,0,0,.2.452c.064.075.052-.067-.027-.315-.162-.508-.312-.624-.177-.137m.955,2.516c0,.441.343,1,.419.679.04-.167.008-.268-.08-.25s-.148-.076-.149-.205a.6.6,0,0,0-.1-.339c-.052-.056-.094-.005-.094.114m1.281,3.539c0,.116.057.21.128.21s.128-.094.128-.21-.058-.21-.128-.21-.128.095-.128.21m.512,1.383c0,.279.339.56.446.371.047-.083.009-.133-.085-.112s-.162-.07-.152-.206-.033-.245-.1-.245-.114.087-.114.193m.632,1.469c.07.144.092.3.047.35s.03.093.164.1.174.043.085.081a.271.271,0,0,0-.16.216c0,.093.066.086.179-.017.2-.179-.066-.992-.321-.992-.077,0-.075.1,0,.262m.471.974c-.1.172.061.724.207.724.071,0,.086-.108.034-.245a1.634,1.634,0,0,1-.1-.42c-.007-.2-.05-.222-.142-.06m.308,1.216c.068.09.087.206.04.257s-.021.092.056.092.161.11.186.245c.042.23.05.23.132,0a.463.463,0,0,0-.094-.439c-.1-.109-.155-.226-.123-.261s-.027-.063-.132-.063c-.131,0-.151.051-.065.165m.383,1.048a.138.138,0,0,0,.136.14c.074,0,.1.063.056.14s-.018.14.057.14c.157,0,.164-.037.058-.339-.086-.244-.307-.3-.307-.081m.739,1.879a1.129,1.129,0,0,1,.113.339c.038.273.094.3.305.157.127-.088.137-.131.028-.132-.088,0-.16-.118-.16-.259s-.084-.257-.186-.257-.147.068-.1.152m.542,1.543a.383.383,0,0,0,.128.288c.07.048.128-.043.128-.2s-.058-.288-.128-.288-.128.091-.128.2m.332.848c.2.333.441.47.433.245-.007-.192-.342-.6-.493-.6-.1,0-.076.122.061.35m.357.8c-.052.092-.03.19.049.219a.183.183,0,0,1,.078.239c-.085.241.161.411.283.2.062-.11.037-.126-.077-.049s-.147.051-.089-.114a.29.29,0,0,0-.044-.313.165.165,0,0,1-.051-.214c.04-.072.045-.13.009-.13s-.106.075-.158.167m-10.8,5.021a.956.956,0,0,0,.189.49c.2.267.2.267.081-.008-.065-.154-.15-.375-.189-.49-.061-.181-.072-.181-.081.008m7.717.062c0,.116.046.21.1.21s.07.11.031.245c-.058.2-.047.207.059.042a.443.443,0,0,0,.007-.455c-.151-.308-.2-.318-.2-.043m.3.677c-.09.257.1.6.222.387.048-.085.028-.155-.044-.155s-.1-.095-.058-.21.045-.21.01-.21-.094.085-.13.188m.485,1.037c.044.1.009.175-.08.175-.118,0-.123.041-.019.156.253.276.449.077.224-.227-.114-.153-.17-.2-.125-.1m.222.925a.953.953,0,0,0,.186.53c.119.108.141.048.092-.254-.09-.548-.315-.772-.278-.276m.3,1.1c.084.294.319.563.407.467a1.018,1.018,0,0,0-.089-.412c-.159-.456-.447-.505-.318-.054m.783,1.68a4.851,4.851,0,0,0,.137.525c.04.116.086.258.1.315s.041.153.058.21a.584.584,0,0,1,.016.21c-.009.058.042.105.113.105.2,0,.152-.514-.064-.75a.844.844,0,0,1-.192-.492.507.507,0,0,0-.116-.36c-.063-.043-.087.064-.052.237m.425,1.653c0,.056.091.14.2.186.285.12.31.109.236-.1-.068-.193-.439-.265-.439-.085m.384.823a.306.306,0,0,0,.13.219.184.184,0,0,1,.044.24c-.048.086-.027.112.05.06.154-.1.061-.651-.112-.651a.124.124,0,0,0-.113.132m-5.5,5.608a1.1,1.1,0,0,0,.191.482c.242.349.24.22,0-.291-.105-.221-.19-.306-.188-.191m1.679,4.417a.36.36,0,0,0,.208.286c.09.02.1,0,.031-.036a.141.141,0,0,1-.065-.19.173.173,0,0,0-.075-.214c-.089-.06-.126,0-.1.154" transform="translate(-2.898 0.005)"/><path class="f" d="M101.262,21.147c0,.082.054.112.119.068s.157.051.2.212.113.262.148.224c.092-.1-.2-.653-.347-.653a.138.138,0,0,0-.124.148m2.772,6.987c.123.229.244.395.267.369.088-.1-.221-.785-.353-.785-.08,0-.044.176.086.416m.232,1.059c.214.68.467.947.381.4-.109-.693-.193-.9-.368-.9-.137,0-.139.093-.013.495m.583,1.387a.384.384,0,0,0,.13.29.17.17,0,0,1,.057.218c-.041.072-.007.13.076.13s.116.1.074.213a.621.621,0,0,0,.143.49c.278.355.411.354.326,0-.037-.154-.116-.28-.176-.28s-.076-.094-.035-.21.014-.21-.058-.21-.17-.189-.216-.42c-.086-.427-.32-.587-.32-.218m.73,1.847c-.041.045.075.328.257.629.33.545.5.649.347.212-.044-.126-.132-.23-.195-.23s-.114-.122-.114-.272c0-.285-.168-.478-.3-.339m.52,1.4a.145.145,0,0,1,.089.2c-.04.07-.011.128.063.128s.136-.095.136-.21a.205.205,0,0,0-.224-.2c-.135.007-.16.039-.063.082m.16.677a.238.238,0,0,0,.265.21c.236,0,.244-.024.073-.21a.717.717,0,0,0-.265-.21c-.04,0-.073.094-.073.21m.128.513a.117.117,0,0,0,.118.117c.065,0,.156.189.2.42s.141.42.21.42.09.064.046.141a.711.711,0,0,0,.007.438c.068.234.11.256.2.1s.116-.158.133.016l.043.42c.073.715.4,1.54.6,1.54.148,0,.2-.073.152-.21-.041-.116-.114-.21-.164-.21a1.87,1.87,0,0,1-.258-.735,3.632,3.632,0,0,0-.326-.945,4.545,4.545,0,0,1-.386-.922c-.191-.6-.577-.994-.577-.595m1.665,4.036c0,.154.051.28.114.28s.106.1.1.23a.29.29,0,0,0,.126.286c.105.041.107-.094.006-.51-.146-.6-.341-.76-.341-.286m.256,1.128c0,.081.058.109.128.062s.128,3.088.128,9.329c0,6.975-.037,9.375-.144,9.258a.919.919,0,0,1-.144-.52.676.676,0,0,0-.112-.439.713.713,0,0,1-.114-.452c0-.294-.029-.331-.126-.166-.122.207-.2.047-.143-.315.009-.057-.042-.1-.113-.1-.255,0-.2.19.718,2.324a4.157,4.157,0,0,1,.306.914,1.185,1.185,0,0,0,.188.492c.1.161.151.333.107.381s-.023.089.048.089.2.268.289.595a4.713,4.713,0,0,0,.321.875,4.814,4.814,0,0,1,.324.84,5.027,5.027,0,0,0,.32.84,7.019,7.019,0,0,1,.385,1.05,3.365,3.365,0,0,0,.372.91.5.5,0,0,1,.151.28,3.476,3.476,0,0,0,.464,1.33c.059,0,.108.076.108.169a28.518,28.518,0,0,0,1.092,2.981c.1.231.273.7.381,1.038a4.262,4.262,0,0,0,.305.77,3.471,3.471,0,0,1,.27.712c.088.308.3.889.461,1.291a9.567,9.567,0,0,1,.383,1.085c.044.194.132.354.2.354s.114.09.114.2a5.714,5.714,0,0,0,.37,1.085c.2.487.411,1.042.461,1.235a3.163,3.163,0,0,0,.251.63,4.941,4.941,0,0,1,.321.84,4.992,4.992,0,0,0,.32.84,5.085,5.085,0,0,1,.322.84c.09.308.415,1.148.724,1.866a13.807,13.807,0,0,1,.561,1.431,5.539,5.539,0,0,0,.305.863c.168.407.349.9.4,1.089a6.129,6.129,0,0,0,.335.838,2.933,2.933,0,0,1,.238.591,6.508,6.508,0,0,0,.32.868,6.614,6.614,0,0,1,.32.865,8.33,8.33,0,0,0,.385.992,7.726,7.726,0,0,1,.422,1.155,1.193,1.193,0,0,0,.193.469,3.889,3.889,0,0,1,.351.923,1.635,1.635,0,0,0,.3.718c.059,0,.144.2.188.444a7.1,7.1,0,0,0,.4,1.181,7.46,7.46,0,0,1,.319.811,7.782,7.782,0,0,0,.3.814c.165.407.378.96.473,1.229a2.515,2.515,0,0,0,.249.56,5.058,5.058,0,0,1,.418,1.435.078.078,0,0,0,.081.1c.062,0,.182.2.268.455s.2.581.254.735a2.018,2.018,0,0,1,.105.4.33.33,0,0,0,.119.21,1.741,1.741,0,0,1,.155,1.685,6.307,6.307,0,0,0-.239.643,5.356,5.356,0,0,1-.2.574,4.3,4.3,0,0,0-.193.584.883.883,0,0,1-.17.3,3.179,3.179,0,0,0-.333.851,12.655,12.655,0,0,1-.47,1.369,5.256,5.256,0,0,0-.307.875.133.133,0,0,1-.128.136c-.07,0-.119.047-.107.1a1.645,1.645,0,0,1-.128.5,2.379,2.379,0,0,0-.149.532,4.973,4.973,0,0,1-.624,1.442c-.062.041-.242-.317-.4-.8a6.928,6.928,0,0,0-.4-1.029,4.419,4.419,0,0,1-.31-.875c-.107-.395-.25-.718-.318-.718s-.123-.09-.123-.2a2.318,2.318,0,0,0-.148-.6,4.723,4.723,0,0,1-.184-.587.821.821,0,0,0-.172-.343.634.634,0,0,1-.137-.371,4.791,4.791,0,0,0-.38-1.057,5.054,5.054,0,0,1-.384-1.05,1.184,1.184,0,0,0-.181-.49,1.907,1.907,0,0,1-.21-.416,12.085,12.085,0,0,0-.4-1.155c-.083-.212-.156-.416-.162-.455a.92.92,0,0,0-.088-.21,5.6,5.6,0,0,1-.239-.7,3.564,3.564,0,0,0-.263-.7,7.155,7.155,0,0,1-.385-.98,7.523,7.523,0,0,0-.381-.978,3.5,3.5,0,0,1-.244-.735c-.08-.327-.2-.6-.276-.6s-.1-.057-.058-.128a.867.867,0,0,0-.114-.525c-.229-.488-.622-1.49-.842-2.147s-.472-1.307-.9-2.315a9.855,9.855,0,0,1-.45-1.26,4.256,4.256,0,0,0-.258-.765c-.092-.193-.32-.76-.507-1.26s-.42-1.117-.519-1.37a2.6,2.6,0,0,1-.18-.665c0-.113-.047-.205-.1-.205a5.358,5.358,0,0,1-.56-1.715.086.086,0,0,0-.094-.1c-.065,0-.188-.236-.272-.525s-.284-.84-.442-1.225c-.423-1.029-.492-1.241-.463-1.435.014-.1-.034-.175-.108-.175a.16.16,0,0,1-.134-.175,5.35,5.35,0,0,0-.384-1.015,4.7,4.7,0,0,1-.384-1.077.438.438,0,0,0-.131-.325.175.175,0,0,1-.052-.227c.043-.077-.008-.246-.114-.375a2.65,2.65,0,0,1-.336-.825,2.338,2.338,0,0,0-.332-.795.835.835,0,0,1-.189-.487.829.829,0,0,0-.186-.483c-.1-.112-.154-.238-.116-.28a2.657,2.657,0,0,0-.473-1.076.972.972,0,0,1-.09-.418c-.011-.191-.077-.369-.147-.394a.166.166,0,0,1-.067-.217.676.676,0,0,0-.2-.481c-.485-.57-.53-.307-.073.429.17.274.276.535.235.58s-.009.081.071.081.114.088.077.2a.257.257,0,0,0,.063.285.25.25,0,0,1,.066.276.538.538,0,0,0,.164.438.951.951,0,0,1,.239.4,4.51,4.51,0,0,0,.469,1.482c.056,0,.1,4.414.1,9.808,0,6.2-.045,9.777-.122,9.725a.263.263,0,0,1-.05-.288c.04-.113.018-.206-.048-.206s-.13-.095-.142-.21-.031-.3-.043-.414-.069-.171-.128-.132-.111.021-.116-.041c-.05-.573-.186-.857-.332-.7a1.3,1.3,0,0,0,.179.688,8.618,8.618,0,0,1,.361.944,5.94,5.94,0,0,0,.333.838,2.437,2.437,0,0,1,.238.661,2.2,2.2,0,0,0,.236.632,8.882,8.882,0,0,1,.458,1.193,3.021,3.021,0,0,0,.323.8,2.21,2.21,0,0,1,.263.7c.09.348.216.633.281.633s.083.063.04.14a.587.587,0,0,0,.12.451,1.247,1.247,0,0,1,.2.5,4.419,4.419,0,0,0,.306.914c.333.788.84,2.117,1.1,2.9a2.986,2.986,0,0,0,.274.623.6.6,0,0,1,.107.323,4.448,4.448,0,0,0,.3.917c.165.4.4,1.01.531,1.356s.337.883.466,1.193a6.137,6.137,0,0,1,.317,1.015c.046.248.129.452.185.452s.171.236.256.525.291.858.458,1.264a5.42,5.42,0,0,1,.3.871,2.235,2.235,0,0,0,.256.591,2,2,0,0,1,.256.673,2.761,2.761,0,0,0,.254.758,8.815,8.815,0,0,1,.4,1.045,4.672,4.672,0,0,0,.3.781,4.971,4.971,0,0,1,.3.7c.077.231.4,1.095.708,1.919.566,1.5.567,1.5.338,1.913a5.455,5.455,0,0,0-.393,1.02,2.7,2.7,0,0,1-.244.677,3.192,3.192,0,0,0-.286.7c-.247.763-.793,2.239-1.121,3.029a7.577,7.577,0,0,0-.324.945c-.082.355-.313.516-.313.217a4.85,4.85,0,0,0-.308-.875,6.932,6.932,0,0,1-.619-1.811.077.077,0,0,0-.077-.1,2.162,2.162,0,0,1-.341-.84,2.435,2.435,0,0,0-.326-.84c-.052,0-.133-.173-.179-.385a7.452,7.452,0,0,0-.314-.945c-.126-.308-.305-.749-.4-.98a4.079,4.079,0,0,1-.22-.767.864.864,0,0,0-.148-.42,2.061,2.061,0,0,1-.33-.7c-.01-.039-.144-.366-.3-.727a4.252,4.252,0,0,1-.282-.8,5.39,5.39,0,0,0-.32-.908,5.2,5.2,0,0,1-.32-.921,3.787,3.787,0,0,0-.32-.813,3.269,3.269,0,0,1-.32-.9.435.435,0,0,0-.128-.324.489.489,0,0,1-.128-.358c0-.149-.049-.272-.108-.272a2.317,2.317,0,0,1-.346-.875,4.75,4.75,0,0,0-.321-.945,4.254,4.254,0,0,1-.326-.84l-.243-.77-.064,9.869c-.039,6.018-.107,9.664-.175,9.343a1.485,1.485,0,0,0-.224-.6.662.662,0,0,1-.114-.436c0-.3-.032-.33-.185-.191-.188.17-.033.846.194.846.053,0,.066.126.028.28s-.012.28.055.28.122.087.122.193a3.466,3.466,0,0,0,.262.8,6.688,6.688,0,0,1,.352,1.068c.05.251.143.42.208.377s.118.035.119.174a4.258,4.258,0,0,0,.342,1.023c.187.423.35.8.361.84s.068.259.124.49a2.247,2.247,0,0,0,.214.575,5.717,5.717,0,0,1,.352.922,8.888,8.888,0,0,0,.384,1.035,5,5,0,0,1,.267.653l.125.385h8.321l.154-.56a1.3,1.3,0,0,1,.235-.56,1.226,1.226,0,0,0,.254-.525c.094-.289.231-.682.3-.875s.142-.382.153-.42c.07-.227.362-.968.518-1.312a.9.9,0,0,0,.113-.525c-.038-.068-.012-.123.059-.123s.2-.294.3-.654c.2-.782.431-.921.549-.334.047.235.134.427.193.427s.149.2.2.453a2.864,2.864,0,0,0,.267.746c.1.161.137.335.09.387s-.018.094.064.094.149.122.149.271a.491.491,0,0,0,.13.36.157.157,0,0,1,.07.193,1.071,1.071,0,0,0,.19.554,2.263,2.263,0,0,1,.249.568,3.656,3.656,0,0,0,.216.661,2.4,2.4,0,0,1,.192.647c-.013.057.034.1.1.1s.128.094.128.21c0,.182.528.21,4,.206l4,0,.235-.353a.815.815,0,0,0,.166-.551.485.485,0,0,1,.131-.418.613.613,0,0,0,.135-.494c-.036-.151-.028-.25.018-.22s.158-.032.249-.14.137-.2.1-.2a6.221,6.221,0,0,1,.781-2.065c.169-.137.177-.176.033-.177-.123,0-.137-.036-.042-.1a1.009,1.009,0,0,0,.239-.453,1.97,1.97,0,0,1,.256-.56.874.874,0,0,0,.135-.519c-.014-.169.016-.28.067-.246.12.081.279-.607.18-.782-.041-.073.011-.133.117-.133.123,0,.175-.1.144-.277a.408.408,0,0,1,.091-.371c.091-.062.1-.026.036.1-.057.108-.055.148,0,.088a.734.734,0,0,0,.144-.35c.019-.133.061-.4.094-.591l.071-.42c.006-.039.069.024.14.14.094.154.111.092.062-.236-.037-.246-.008-.486.064-.535a.162.162,0,0,0,.065-.2c-.036-.064.021-.152.126-.2a.4.4,0,0,0,.191-.356.5.5,0,0,1,.137-.368.249.249,0,0,0,.072-.277.213.213,0,0,1,.119-.262.306.306,0,0,0,.182-.257c0-.125-.039-.116-.126.031s-.125.156-.126.031a.315.315,0,0,1,.19-.26c.106-.044.192-.141.192-.214s-.063-.091-.141-.038c-.1.069-.1.017,0-.183.075-.153.1-.328.045-.389s-.018-.065.071-.009a.2.2,0,0,1,.076.254c-.052.092-.026.112.064.051a.19.19,0,0,0,.071-.241c-.044-.077.028-.234.158-.351s.157-.165.059-.11c-.144.081-.158.021-.072-.3.059-.223.118-4.784.131-10.136s0-9.584-.034-9.406a.763.763,0,0,1-.372.479c-.23.114-.27.187-.151.272s.124.145-.028.254c-.106.076-.135.141-.064.144s.016.1-.12.212-.182.206-.082.206c.118,0,.141.113.079.384-.087.377-.3.628-.453.526-.042-.028-.09.18-.107.464s-.087.537-.154.563a.219.219,0,0,0-.122.194.6.6,0,0,1-.224.334c-.137.113-.162.188-.064.19a.16.16,0,0,1,.16.153c0,.082-.057.11-.127.063s-.1,0-.057.114a.231.231,0,0,1-.129.283.312.312,0,0,0-.2.236c0,.084.067.108.148.053.23-.156-.029.262-.29.468a1.242,1.242,0,0,0-.311.63,2.085,2.085,0,0,1-.191.595.717.717,0,0,0-.119.28,3.268,3.268,0,0,1-.357,1.149.59.59,0,0,0-.1.453c.048.085,0,.112-.112.064-.143-.06-.18,0-.142.211.028.161-.01.293-.084.293s-.108.157-.072.361c.04.23,0,.388-.113.435a.394.394,0,0,0-.176.347c0,.15-.057.234-.127.188s-.1,0-.057.113a.473.473,0,0,1-.124.412,1.366,1.366,0,0,0-.258.594,5.136,5.136,0,0,1-.371,1.03,5.534,5.534,0,0,0-.4,1.178c-.049.29-.137.5-.2.456-.086-.058-.246.327-.318.765-.007.038-.118.314-.249.613a5.059,5.059,0,0,0-.277.77,1.236,1.236,0,0,1-.066.262,2.711,2.711,0,0,0-.186.56c-.052.173-.147.315-.212.315s-.107.079-.093.175a1.669,1.669,0,0,1-.143.595,1.657,1.657,0,0,0-.143.6.254.254,0,0,1-.153.252,2.292,2.292,0,0,0-.414.971c-.129.492-.281.863-.339.824s-.1.117-.1.346-.065.44-.144.469-.144.222-.144.429-.05.343-.112.3-.112-.009-.112.073-.1.148-.213.148-.18-.036-.14-.081a2.362,2.362,0,0,0-.239-.875c-.523-1.326-.555-1.411-.7-1.809-.078-.212-.218-.574-.311-.8s-.243-.657-.332-.945-.212-.525-.273-.525-.079-.055-.04-.123a2.9,2.9,0,0,0-.427-1.275,10.826,10.826,0,0,1,.993-3.071,5.015,5.015,0,0,0,.224-.56,4.392,4.392,0,0,1,.16-.475,2.287,2.287,0,0,0,.149-.6c0-.115.058-.17.128-.123s.128-.059.128-.244a.954.954,0,0,1,.1-.463,3.466,3.466,0,0,0,.274-.693c.095-.308.366-1.013.6-1.568a12.237,12.237,0,0,0,.481-1.26c.109-.536.239-.882.332-.882a2.05,2.05,0,0,0,.274-1.015c-.009-.058.04-.1.111-.1s.128-.193.128-.428.049-.4.109-.355.219-.286.352-.726a3.345,3.345,0,0,1,.435-.986c.124-.119.13-.15.019-.088s-.107-.013.043-.263a.711.711,0,0,0,.139-.5.18.18,0,0,1,.062-.23.26.26,0,0,0,.07-.29c-.038-.108-.026-.2.027-.2a2.432,2.432,0,0,0,.463-1.082,1.155,1.155,0,0,1,.234-.455c.122-.155.192-.282.156-.282s.036-.171.161-.38.156-.331.068-.273c-.108.073-.134.038-.082-.11.042-.119.128-.217.19-.217s.114-.114.114-.254a3.2,3.2,0,0,1,.271-.867,5,5,0,0,0,.3-.807.544.544,0,0,1,.209-.321c.1-.07.133-.128.071-.129s-.033-.109.064-.239c.151-.2.149-.22-.017-.116-.114.072-.088-.012.064-.207s.18-.282.064-.21c-.138.085-.129.039.032-.162a1.014,1.014,0,0,0,.224-.491.546.546,0,0,1,.1-.316.4.4,0,0,0,.1-.2,1.811,1.811,0,0,1,.164-.408c.088-.173.118-.315.066-.315s-.025-.076.059-.168a.715.715,0,0,0,.154-.42c0-.138.056-.252.124-.252s.094-.086.057-.192a.216.216,0,0,1,.114-.268.819.819,0,0,0,.264-.528,1.346,1.346,0,0,1,.306-.652c.123-.11.145-.157.05-.1-.134.076-.151.022-.076-.234a2.488,2.488,0,0,0,.1-.5c0-.093.049-.137.108-.1.108.073.153-.2.116-.714-.017-.233,0-.245.111-.07.073.115.138.178.144.14s.04-.254.074-.48a1.177,1.177,0,0,1,.278-.605c.119-.107.145-.155.057-.106s-.16.022-.16-.06a.15.15,0,0,1,.15-.149c.082,0,.112-.041.065-.092s-.02-.177.058-.28.1-.188.059-.188-.022-.128.055-.284.205-.243.293-.189c.109.067.107.04-.006-.094-.19-.224-.214-.465-.034-.343.073.049.094-.008.05-.134a.484.484,0,0,1,.064-.4.271.271,0,0,0,.046-.3c-.053-.063-.037-.08.033-.037s.2-.01.293-.117.112-.2.027-.2-.1-.082-.009-.262c.07-.144.092-.3.047-.35s-.011-.089.076-.089.124-.057.084-.128-.028-.149.025-.175.068-4.362.033-9.636c-.039-5.843-.107-9.385-.174-9.065-.061.289-.184.525-.273.525-.232,0-.493.374-.335.481.18.121-.094.919-.315.919-.1,0-.145.086-.108.192a.226.226,0,0,1-.132.275.312.312,0,0,0-.2.236c0,.084.057.114.128.066s.128-.02.128.062a.135.135,0,0,1-.114.148c-.063,0-.149.1-.19.218s-.022.181.049.133.092.009.049.133-.128.218-.191.218-.114.1-.114.218-.052.183-.116.14-.088.04-.053.186a.367.367,0,0,1-.076.358.478.478,0,0,0-.139.355,1.5,1.5,0,0,1-.317.672c-.174.226-.281.45-.238.5s.006.181-.082.3a.512.512,0,0,0-.087.422c.042.119.009.2-.076.177a.124.124,0,0,0-.16.107,1.767,1.767,0,0,1-.171.455c-.088.173-.122.315-.076.315s0,.107-.092.237c-.15.2-.149.219,0,.118.134-.089.151-.069.066.078a.966.966,0,0,0-.122.337.127.127,0,0,1-.171.1c-.09-.021-.13.022-.088.1a.178.178,0,0,1-.063.227.236.236,0,0,0-.081.261.6.6,0,0,1-.115.427c-.1.143-.143.314-.106.38s-.018.157-.124.2a.229.229,0,0,0-.114.3c.053.149.028.187-.076.117s-.137,0-.094.257,0,.361-.124.361c-.11,0-.184.139-.184.35,0,.192-.061.35-.136.35s-.1.063-.057.14.028.14-.033.14-.191.315-.287.7-.228.7-.294.7-.09.126-.053.28.016.246-.046.2-.179.21-.26.56-.2.636-.259.636-.113.153-.113.342a.617.617,0,0,1-.13.43.169.169,0,0,0-.057.218c.041.072.009.13-.07.13s-.111.056-.073.124-.059.3-.216.522-.264.418-.236.443a4.628,4.628,0,0,1-.518,1.572c-.052,0-.072.126-.045.28s0,.28-.051.28c-.14,0-.448.728-.41.965a.319.319,0,0,1-.114.294.629.629,0,0,0-.192.365,1.546,1.546,0,0,1-.072.3.511.511,0,0,0-.042.163c-.038.309-.208.306-.208,0a1.438,1.438,0,0,0-.2-.653,4.553,4.553,0,0,1-.383-.976,10.419,10.419,0,0,0-.505-1.355,3.511,3.511,0,0,1-.322-.94,2.222,2.222,0,0,0-.247-.734,6.389,6.389,0,0,1-.405-1.089,2.316,2.316,0,0,0-.3-.747,7.845,7.845,0,0,1-.653-1.61c-.008-.038-.082-.247-.164-.464a3.622,3.622,0,0,1-.149-.446,3.708,3.708,0,0,0-.149-.446c-.082-.217-.159-.426-.171-.464s-.145-.354-.3-.7a3.455,3.455,0,0,1-.278-.875c0-.135-.053-.245-.115-.245a1.479,1.479,0,0,1-.238-.876,1.638,1.638,0,0,0-.232-.454,6.409,6.409,0,0,1-.5-1.225,2.069,2.069,0,0,0-.348-.805c-.059,0-.107-.09-.107-.2a2.31,2.31,0,0,0-.148-.6,3.693,3.693,0,0,1-.265-.989c-.008-.1-.056-.175-.107-.175s-.133-.173-.181-.385a1.79,1.79,0,0,0-.283-.621.414.414,0,0,1-.11-.385c.046-.082.023-.149-.052-.149s-.136-.081-.136-.181a31.5,31.5,0,0,0-1.126-3.127c-.129-.276-.783-2.134-1.065-3.027-.091-.289-.205-.525-.253-.525a1.431,1.431,0,0,1-.23-.622,1.818,1.818,0,0,0-.273-.71.169.169,0,0,1-.056-.218c.04-.072.025-.13-.034-.13s-.187-.3-.284-.665a7.911,7.911,0,0,0-.412-1.153,2.88,2.88,0,0,1-.236-.6,4.235,4.235,0,0,0-.247-.7c-.136-.326-.429-1.1-.652-1.713s-.468-1.278-.543-1.47-.147-.382-.16-.42-.109-.29-.216-.56c-.336-.85-.4-1.047-.38-1.155a.087.087,0,0,0-.092-.1c-.061,0-.144-.173-.183-.385a5.7,5.7,0,0,0-.229-.8,1.79,1.79,0,0,1-.138-.525.083.083,0,0,0-.082-.1,1.878,1.878,0,0,1-.345-.735c-.133-.4-.317-.892-.409-1.085a1.73,1.73,0,0,1-.168-.508,17.865,17.865,0,0,0-.887-2.362,10.827,10.827,0,0,1-.649-1.976.213.213,0,0,0-.093-.179,2.975,2.975,0,0,1-.349-.786,5.075,5.075,0,0,0-.372-.889,1.086,1.086,0,0,1-.166-.412c-.078-.578-.192-.873-.308-.794-.07.048-.114.034-.1-.029a9.435,9.435,0,0,0-.6-2.005,5.4,5.4,0,0,1-.571-1.666c0-.161-.058-.294-.128-.294s-.128-.084-.128-.186a3.851,3.851,0,0,0-.319-.875,5.472,5.472,0,0,1-.32-.785,2.718,2.718,0,0,0-.149-.49,1.621,1.621,0,0,1-.122-.569c.015-.1-.092-.175-.235-.175s-.262.067-.262.148m-4.437,7.2a6.349,6.349,0,0,1,.261.665c.087.3.334.324.334.027,0-.12-.048-.186-.105-.147s-.1-.036-.1-.167-.031-.238-.081-.238-.184-.126-.3-.28c-.192-.261-.194-.251-.015.14m.467,1.252a.383.383,0,0,0,.128.288c.07.048.128-.043.128-.2s-.058-.288-.128-.288-.128.091-.128.2m.331.341c-.067.216-.049.369.05.435.084.057.148.144.142.193-.037.3,0,.509.1.509.12,0,.112-.363-.016-.7a3.176,3.176,0,0,1-.126-.49c-.043-.257-.055-.252-.149.052m.309,1.348a4.018,4.018,0,0,0,.256.593,2.59,2.59,0,0,1,.256.714,3.6,3.6,0,0,0,.3.847,11.347,11.347,0,0,1,.458,1.175c.086.286.239.52.339.52.225,0,.242-.365.021-.458a3.566,3.566,0,0,1-.5-1.548c.013-.064-.036-.076-.108-.027s-.131.022-.131-.06a.65.65,0,0,0-.216-.544.322.322,0,0,1-.1-.316c.12-.212-.073-.688-.279-.688-.1,0-.155-.063-.112-.14s.018-.14-.057-.14-.136.032-.136.07m1.8,4.576a.429.429,0,0,0,.132.329c.226.153.258-.008.059-.3-.164-.237-.187-.241-.191-.033m.512.786c0,.1-.066.141-.141.09-.1-.065-.1-.015-.009.167a3.624,3.624,0,0,1,.2.5c.086.3.334.323.334.027,0-.12-.057-.18-.127-.133s-.095-.005-.053-.123a.676.676,0,0,0-.062-.463c-.08-.151-.136-.179-.139-.07M101.3,57.853a.865.865,0,0,1,.256.486.931.931,0,0,0,.149.42c.059.06.069-.109.023-.375-.08-.46-.258-.7-.521-.7-.066,0-.024.077.094.173m2.944,7.8c.011.154.063.28.116.28s.064.094.023.21-.006.21.077.21.119.109.07.279c-.066.226-.037.262.151.188.128-.05.192-.042.142.019s-.007.287.1.5a1.031,1.031,0,0,1,.107.618c-.05.141-.018.21.085.184s.223.226.321.659c.087.385.165.637.175.56s.078-.045.151.07c.214.334.015-.372-.346-1.223a7.278,7.278,0,0,1-.387-1.152,1.236,1.236,0,0,0-.25-.576,1.37,1.37,0,0,1-.255-.633c-.087-.508-.306-.665-.274-.2m35.477.681c-.009.2.016.275.057.16a.712.712,0,0,1,.193-.3c.066-.047.04-.119-.057-.159-.12-.05-.181.044-.193.3M105.836,70.15c.23.425.422.532.419.233a.645.645,0,0,0-.437-.608c-.18-.029-.178.013.018.375m.336.758a.192.192,0,0,0,.167.21c.1,0,.135-.089.093-.21s-.116-.21-.166-.21-.093.094-.093.21m.179.434c-.115.126.044.486.175.4.063-.043.115.08.115.273,0,.335.2.612.338.464a3.616,3.616,0,0,0-.511-1.218.259.259,0,0,0-.117.084m-6.044,4.151a1.47,1.47,0,0,0,.2.452c.064.075.052-.067-.027-.315-.162-.508-.312-.624-.177-.137m3.781,9.458c0,.1-.059.149-.12.108s-.02.144.091.411c.192.464.4.646.4.347a.141.141,0,0,0-.142-.14c-.078,0-.115-.079-.082-.175a.844.844,0,0,0-.042-.455c-.056-.154-.105-.2-.11-.1m.314,1.444a2.209,2.209,0,0,0,.224.6,4.677,4.677,0,0,1,.33.892c.151.57.532.845.532.385,0-.115-.054-.21-.12-.21-.112,0-.337-.535-.3-.709a1.449,1.449,0,0,0-.287-.467.865.865,0,0,1-.234-.585c.038-.109.009-.2-.065-.2s-.111.134-.082.3m1.141,2.818a2.214,2.214,0,0,0,.44,1.2c.115.1.19.211.167.247-.087.138.132.9.258.9.16,0,.011-.749-.162-.817a.118.118,0,0,1-.046-.176.751.751,0,0,0-.018-.443c-.088-.3-.094-.305-.191-.034s-.1.265-.125-.035a4.264,4.264,0,0,0-.057-.455,3.016,3.016,0,0,1-.048-.35c-.009-.115-.068-.21-.133-.21s-.1.079-.084.175m1.01,2.354c-.153.169-.009.634.263.85a.186.186,0,0,1,.033.23c-.1.179.264,1.151.433,1.151.186,0,.154-.519-.037-.6-.09-.037-.176-.242-.192-.456a1.311,1.311,0,0,0-.145-.542,1.265,1.265,0,0,1-.16-.478c-.034-.25-.079-.286-.195-.157m.729,2.475a.913.913,0,0,0,.121.311c.148.255.321.1.217-.2-.076-.218-.342-.305-.338-.111m-4.411,3.115a1.484,1.484,0,0,0,.2.483c.183.214.127-.093-.088-.483l-.193-.35.084.35m1.41,4.042c-.049.087-.043.158.014.158s.116.2.132.439c.034.525.074.58.376.516.216-.046.213-.071-.043-.351-.152-.166-.247-.334-.211-.373s.01-.178-.057-.31c-.083-.161-.151-.188-.211-.081m.566,1.566c0,.158.058.249.128.2a.383.383,0,0,0,.128-.288c0-.111-.057-.2-.128-.2s-.128.129-.128.288m.2.4c-.07.123-.025.255.129.378.13.1.168.189.083.189a.145.145,0,0,0-.153.136c0,.075.1.1.213.046.14-.059.182-.035.124.069-.14.247.3,1.569.526,1.569.138,0,.156-.05.064-.175a2.047,2.047,0,0,1-.218-.63c-.049-.25-.137-.455-.195-.455s-.078-.117-.044-.259a.565.565,0,0,0-.12-.458,1.281,1.281,0,0,1-.243-.4c-.051-.166-.079-.168-.168-.011m1.021,2.667a.273.273,0,0,0,.232.409c.118-.008.118-.027,0-.079a.215.215,0,0,1-.082-.269c.08-.229-.029-.273-.149-.061m.283,1.26c.037.154.118.28.18.28s.113.126.113.28.058.28.128.28.116.047.1.1c-.068.266.169,1.074.266.9.066-.115.16.1.261.6.088.426.219.775.291.775s.1.1.056.218c-.08.227.373.875.508.727.042-.047-.042-.2-.188-.334-.181-.169-.219-.28-.119-.347s.083-.167-.067-.331a.843.843,0,0,1-.213-.475.7.7,0,0,0-.154-.41c-.085-.093-.11-.168-.057-.168s.013-.173-.088-.385a4.7,4.7,0,0,1-.582-1.715c-.01-.176-.107-.28-.26-.28-.181,0-.227.072-.177.28m1.7,4.468a.145.145,0,0,0,.136.152c.074,0,.1.063.057.14s-.014.14.066.14c.192,0,.107-.45-.1-.525-.088-.032-.16.01-.16.093m-3.88,9.292a3.679,3.679,0,0,0,.285.659.471.471,0,0,1,.073.278.3.3,0,0,0,.256.253c.2.035.217.015.073-.092a.618.618,0,0,1-.216-.323c-.125-.693-.19-.891-.3-.933a.11.11,0,0,1-.066-.161c.035-.062-.021-.149-.124-.193-.16-.067-.156.012.024.511m.806,2.2c0,.154.057.28.128.28s.12.047.11.1a1.9,1.9,0,0,0,.415,1.015.143.143,0,0,0,0-.28c-.062,0-.112-.166-.112-.37a.635.635,0,0,0-.2-.493.3.3,0,0,1-.13-.331c.039-.113.009-.206-.07-.206s-.142.126-.142.28m.689,1.737c.081.6.677,1.6.677,1.133,0-.115-.048-.21-.107-.21s-.107-.068-.107-.15a.692.692,0,0,0-.187-.354.465.465,0,0,1-.114-.41c.04-.113.014-.206-.058-.206s-.119.089-.1.2m.648,1.85c.094.408.425.833.547.7.043-.047-.032-.223-.166-.391s-.173-.259-.085-.2c.217.138.2-.028-.023-.274-.274-.3-.367-.243-.273.167m.5,1.173a3.611,3.611,0,0,1,.081.455.117.117,0,0,0,.122.1c.157,0,.057-.566-.135-.76-.111-.112-.128-.061-.069.2m.469.77c0,.232-.027.244-.13.07-.225-.38-.133-.065.2.689.35.794.459.874.351.257-.037-.211-.125-.345-.195-.3s-.094-.028-.042-.209a.837.837,0,0,0-.046-.543c-.122-.23-.132-.227-.138.032" transform="translate(-8.538 0.005)"/><path class="g" d="M0,37.063a8.275,8.275,0,0,0,.635,1.925,8.326,8.326,0,0,1,.528,1.734c-.017.03.026.094.1.141a4.786,4.786,0,0,1,.564,1.519c.007.1.054.175.1.175a2.433,2.433,0,0,1,.323.84,2.5,2.5,0,0,0,.32.84c.049,0,.128.165.174.366a7.489,7.489,0,0,0,.326.945,22.943,22.943,0,0,1,1.283,3.624c0,.144.052.227.114.185s.153.1.2.307A6.836,6.836,0,0,0,5,50.608a26.967,26.967,0,0,1,.96,2.642,2.4,2.4,0,0,0,.255.6.654.654,0,0,1,.125.472c-.042.075-.025.136.038.136s.191.268.284.6a5.66,5.66,0,0,0,.32.875,8.583,8.583,0,0,1,.386.98,7.431,7.431,0,0,0,.322.84,7.625,7.625,0,0,1,.329.91,4.545,4.545,0,0,0,.32.84,4.087,4.087,0,0,1,.3.8,2.741,2.741,0,0,0,.339.813.388.388,0,0,1,.118.29,4.3,4.3,0,0,0,.3.936A27.43,27.43,0,0,1,10.4,65.064a1.745,1.745,0,0,0,.191.49c.122.249.229.485.237.523s.083.247.166.464a3.434,3.434,0,0,1,.149.451c0,.031.137.389.305.8s.348.9.4,1.089a2.8,2.8,0,0,0,.271.626,1.114,1.114,0,0,1,.175.438,3.272,3.272,0,0,0,.216.7,2.4,2.4,0,0,1,.192.647c-.013.057.034.1.1.1s.128.091.128.2a8.88,8.88,0,0,0,.455,1.365c.547,1.4.66,1.7.671,1.792,0,.038.19.511.413,1.05a11.839,11.839,0,0,1,.448,1.211,7.869,7.869,0,0,0,.373.994,6.434,6.434,0,0,1,.33.863,23.876,23.876,0,0,0,.905,2.268,3.345,3.345,0,0,1,.251.77,4.181,4.181,0,0,0,.319.9,5.6,5.6,0,0,1,.316.8,9.036,9.036,0,0,0,.382,1.01,11.659,11.659,0,0,1,.463,1.265.919.919,0,0,0,.2.435.161.161,0,0,1,.042.209c-.041.072-.013.13.062.13s.122.047.106.1a2.793,2.793,0,0,0,.214.735,3.171,3.171,0,0,1,.222.735c-.012.058.035.1.106.1s.128.126.128.279a4.9,4.9,0,0,0,.376,1.155A21.04,21.04,0,0,1,21.023,93.6c-.046.056-.018.061.062.011.131-.082.551.923.588,1.411.007.1.061.175.12.175s.107.1.107.212a1.319,1.319,0,0,0,.113.455,11.949,11.949,0,0,1,.656,1.661,2.687,2.687,0,0,0,.237.614,10.145,10.145,0,0,1,.458,1.222,2.755,2.755,0,0,0,.339.813.606.606,0,0,1,.118.413.6.6,0,0,0,.128.42.49.49,0,0,1,.128.359c0,.149.057.272.126.272s.165.173.213.385a7.39,7.39,0,0,0,.247.805,1.913,1.913,0,0,1,.141.49,2.249,2.249,0,0,0,.26.563,3.74,3.74,0,0,1,.453,1.5c.007.093.05.143.1.111s.184.284.3.7a2.782,2.782,0,0,0,.342.842.379.379,0,0,1,.123.285,4.148,4.148,0,0,0,.32.928,5.569,5.569,0,0,1,.32.835,6.229,6.229,0,0,0,.319.872c.175.419.471,1.224.657,1.787a10.031,10.031,0,0,0,.528,1.341c.1.174.157.317.116.317a1.885,1.885,0,0,0,.242.685,3.646,3.646,0,0,1,.315.91c0,.123.057.225.128.225s.128.114.128.253a1.118,1.118,0,0,0,.188.525,1.245,1.245,0,0,1,.192.587c0,.173.057.315.122.315s.159.2.209.453a2.922,2.922,0,0,0,.281.77c.1.174.147.317.1.317s-.025.092.06.2a.38.38,0,0,1,.06.372c-.06.106-.04.131.053.068s.148.006.148.189c0,.158.056.288.124.288s.091.094.05.21-.017.21.05.21.228.362.354.8a13.208,13.208,0,0,0,.594,1.592,4.367,4.367,0,0,1,.364,1.007.4.4,0,0,0,.122.3.262.262,0,0,1,.05.288c-.04.113-.015.206.056.206s.164.157.208.349a23.713,23.713,0,0,0,1.049,2.614,2.454,2.454,0,0,1,.208.735c.015.2.068.363.118.363s.128.189.174.42.138.42.2.42.118.157.118.35.058.35.128.35.128.153.128.34a.937.937,0,0,0,.192.55.759.759,0,0,1,.192.422.4.4,0,0,0,.13.3.169.169,0,0,1,.056.218c-.04.072-.008.13.073.13s.12.079.09.175a1.786,1.786,0,0,0,.247.779,1.515,1.515,0,0,1,.231.735c-.04.072-.027.131.031.131s.181.2.273.455.233.613.312.8a1.8,1.8,0,0,1,.136.592c0,.133.037.212.09.176s.132.032.173.15c.05.142.022.186-.083.129-.087-.048-.054.006.074.12s.223.246.21.294a2.9,2.9,0,0,0,.191.779c.015.038.092.237.17.441a1.249,1.249,0,0,0,.279.465.175.175,0,0,1,.065.223c-.041.072,0,.131.094.133.122,0,.115.039-.025.138s-.149.136-.021.138a.125.125,0,0,1,.118.174c-.029.095.067.288.213.431s.194.218.106.169c-.215-.12-.2.041.023.288.142.155.6.2,2.046.2h1.863l.035-5.237c.019-2.88-.008-5.207-.061-5.172s-.1-.033-.1-.153-.058-.218-.128-.218-.128-.129-.128-.288c0-.193-.053-.254-.16-.183s-.094.016.022-.14c.157-.212.157-.239,0-.2-.124.029-.177-.077-.168-.339s-.064-.409-.224-.464c-.131-.045-.238-.145-.238-.222s.058-.1.128-.052.128-.01.128-.128c0-.144-.074-.185-.224-.126-.123.048-.181.036-.129-.026s.024-.211-.064-.329c-.132-.178-.126-.194.033-.094.137.086.127.04-.032-.159a1.012,1.012,0,0,1-.224-.493c0-.439-.282-1.094-.429-1-.087.057-.079,0,.019-.128.142-.191.127-.239-.1-.316-.251-.088-.286-.181-.314-.866a.762.762,0,0,0-.129-.42c-.069-.069-.074-.036-.012.08s.055.164-.031.105a.7.7,0,0,1-.109-.5c.02-.309-.039-.431-.237-.492-.244-.076-.247-.092-.038-.226s.214-.161,0-.473c-.124-.181-.262-.3-.308-.274s-.117-.043-.159-.161-.024-.181.039-.139.083-.054.045-.214a.57.57,0,0,0-.235-.361.3.3,0,0,1-.12-.327.308.308,0,0,0-.131-.332c-.1-.043-.154-.2-.122-.386a.731.731,0,0,0-.081-.491.332.332,0,0,1-.053-.325c.045-.081,0-.146-.109-.146a.359.359,0,0,1-.284-.161c-.057-.1-.035-.124.057-.062.219.148.179-.142-.053-.4-.153-.166-.16-.222-.032-.23.093-.006.059-.057-.076-.115-.228-.1-.33-.342-.357-.855a1.83,1.83,0,0,0-.274-.621c-.144-.226-.195-.364-.111-.307.1.068.126.029.076-.114-.042-.119-.137-.175-.212-.125s-.106.005-.055-.141c.045-.128.022-.233-.05-.233s-.1-.063-.052-.14.018-.14-.057-.14-.129-.048-.12-.105c.055-.381-.043-.735-.2-.735-.115,0-.159-.082-.114-.212a.469.469,0,0,0-.061-.391,1.92,1.92,0,0,1-.213-.66,1.139,1.139,0,0,0-.217-.575.3.3,0,0,1-.059-.326c.045-.127.031-.2-.031-.156s-.153-.065-.2-.238a4.5,4.5,0,0,1-.222-.908c-.008-.1-.057-.175-.108-.175a2.721,2.721,0,0,1-.445-1.05c-.019-.077-.138-.392-.265-.7a3.988,3.988,0,0,1-.25-.791,2.516,2.516,0,0,0-.291-.713,2.906,2.906,0,0,1-.314-.78.955.955,0,0,0-.13-.4.6.6,0,0,1-.089-.336.619.619,0,0,0-.177-.4,2.255,2.255,0,0,1-.353-1.169c.009-.058-.039-.1-.107-.1s-.091-.095-.05-.21.015-.21-.056-.21-.218-.284-.326-.63a1.611,1.611,0,0,1-.131-.63c.036,0-.054-.166-.2-.369a1.5,1.5,0,0,1-.266-.5,5.709,5.709,0,0,0-.32-.9,5.016,5.016,0,0,1-.321-.936,2.085,2.085,0,0,0-.2-.591c-.221-.46-.825-2.016-.87-2.24a2.539,2.539,0,0,0-.182-.446,1.457,1.457,0,0,1-.154-.515.7.7,0,0,0-.163-.394.668.668,0,0,1-.156-.4.449.449,0,0,0-.067-.28,4.816,4.816,0,0,1-.554-1.717c.048-.085.021-.1-.065-.046-.131.089-.213-.168-.163-.512.009-.058-.052-.1-.134-.1s-.111-.042-.064-.094,0-.242-.112-.424a.639.639,0,0,1-.121-.466c.042-.075.025-.136-.038-.136-.156,0-.434-.689-.342-.851.04-.071.023-.129-.038-.129-.142,0-.516-.922-.627-1.548a1.1,1.1,0,0,0-.258-.594.415.415,0,0,1-.172-.308,8.2,8.2,0,0,0-.431-1.288c-.4-1.008-.6-1.546-.658-1.722-.012-.038-.1-.259-.191-.49a3.833,3.833,0,0,1-.189-.56,8.969,8.969,0,0,0-.364-.949,5.22,5.22,0,0,1-.345-.987.614.614,0,0,0-.154-.346c-.085-.093-.1-.169-.032-.17s.051-.051-.035-.111a.654.654,0,0,1-.2-.383,5.686,5.686,0,0,0-.308-.9,10.7,10.7,0,0,1-.492-1.4c-.01-.038-.171-.434-.359-.879a4.443,4.443,0,0,1-.341-1.108c0-.165-.039-.257-.086-.205a5.477,5.477,0,0,1-.645-1.481c-.307-.867-.672-1.809-.81-2.094a2.484,2.484,0,0,1-.251-.774,1.24,1.24,0,0,0-.188-.549c-.1-.161-.151-.332-.107-.38s-.011-.2-.122-.333a1.872,1.872,0,0,1-.294-.666,1.929,1.929,0,0,0-.273-.649,1.112,1.112,0,0,1-.2-.525c-.011-.162-.075-.3-.142-.3s-.084-.042-.037-.094.01-.225-.083-.385a11.144,11.144,0,0,1-.745-2.165c.021-.03-.011-.093-.071-.14a2.307,2.307,0,0,1-.425-1.142c0-.15-.05-.274-.111-.274s-.212-.3-.337-.665-.363-1-.53-1.4a5.231,5.231,0,0,1-.3-.88,4.413,4.413,0,0,0-.322-.836,2.266,2.266,0,0,1-.258-.7c.035,0-.052-.225-.193-.5s-.2-.464-.136-.419,0-.186-.144-.515a6.649,6.649,0,0,1-.612-1.515,9.466,9.466,0,0,0-.448-1.172,9.951,9.951,0,0,1-.448-1.164,3.365,3.365,0,0,0-.255-.663,4.924,4.924,0,0,1-.335-1.01c-.044-.254-.137-.463-.207-.463s-.093-.1-.051-.218.028-.185-.031-.145-.179-.189-.267-.508a7.406,7.406,0,0,0-.4-1.078,2.839,2.839,0,0,1-.244-.617,21.566,21.566,0,0,0-.985-2.531c-.113-.223-.143-.364-.068-.314.122.083.027-.162-.571-1.472a1.859,1.859,0,0,1-.17-.543,5.189,5.189,0,0,0-.384-1,5.126,5.126,0,0,1-.384-1,2.442,2.442,0,0,0-.238-.661,8.139,8.139,0,0,1-.4-1.048,3.445,3.445,0,0,0-.286-.729.341.341,0,0,1-.028-.336c.056-.1.041-.131-.038-.078s-.229-.278-.37-.818a2.668,2.668,0,0,0-.335-.908c-.054,0-.1-.074-.1-.165a3.47,3.47,0,0,0-.268-.77l-.267-.6H3.831c-3.563,0-3.831.017-3.831.245m12.6-.046a.771.771,0,0,0,.072.49c.079.16.1.292.042.293s-.04.048.033.1a8.226,8.226,0,0,1,.631,1.433c.273.732.547,1.4.607,1.491a1.436,1.436,0,0,1,.167.42,4.659,4.659,0,0,0,.618,1.635c.046-.051.084.044.084.211a4.8,4.8,0,0,0,.376,1.178,10.319,10.319,0,0,1,.462,1.26c.048.212.136.385.2.385s.077.093.037.206a.494.494,0,0,0,.132.43.823.823,0,0,1,.2.463,1.279,1.279,0,0,0,.2.55.581.581,0,0,1,.108.473c-.053.093-.035.123.042.071s.192.165.276.53a1.868,1.868,0,0,0,.265.7.289.289,0,0,1,.042.311q-.081.23.07.127c.086-.058.15-.021.15.086a9.426,9.426,0,0,0,.448,1.35,9.081,9.081,0,0,1,.448,1.361c0,.109.064.2.142.2s.11.09.071.2-.024.221.031.245a4.524,4.524,0,0,1,.554,1.656c-.052,0-.035.048.038.1a11.855,11.855,0,0,1,1.027,2.449,1,1,0,0,0,.2.464.16.16,0,0,1,.042.209c-.04.072-.022.13.042.13s.188.267.277.595a3.338,3.338,0,0,0,.287.764.337.337,0,0,1,.031.337c-.055.1-.041.131.034.081s.2.175.289.5a3.286,3.286,0,0,0,.286.759.337.337,0,0,1,.031.336c-.06.106-.04.131.053.068s.148,0,.148.161a3.663,3.663,0,0,0,.307.953,12,12,0,0,1,.468,1.252,8.482,8.482,0,0,0,.391,1.05,12.533,12.533,0,0,1,.557,1.4,11.591,11.591,0,0,0,.583,1.54,4.069,4.069,0,0,1,.3.77,10.093,10.093,0,0,0,.409,1.069,2.775,2.775,0,0,1,.223.63,4.5,4.5,0,0,0,.322.851,3.4,3.4,0,0,1,.28.731,5.256,5.256,0,0,0,.3.881c.167.407.408,1.054.536,1.439a6.476,6.476,0,0,0,.4.976,1.151,1.151,0,0,1,.169.464,6,6,0,0,0,.406,1.107,5.934,5.934,0,0,1,.405,1.111c0,.105.058.192.128.192s.094.038.052.084a3.537,3.537,0,0,0,.346,1.1c.232.557.5,1.26.584,1.561a3.354,3.354,0,0,0,.289.723c.07.1.09.175.044.175s.01.154.122.343a1.6,1.6,0,0,1,.2.418,6.352,6.352,0,0,0,.308.812,4.191,4.191,0,0,1,.315.983c0,.134.049.245.108.245s.108.079.109.175a4.55,4.55,0,0,0,.29.875c.459,1.117.494,1.211.825,2.192a2.858,2.858,0,0,1,.228,1.038c-.048.057-.014.059.074,0s.16-.014.16.136a1.888,1.888,0,0,0,.247.673,3.007,3.007,0,0,1,.26.54,6.353,6.353,0,0,0,.459,1.3A29.333,29.333,0,0,1,34.129,94.5a4.189,4.189,0,0,0,.31.739,2.471,2.471,0,0,1,.269.728c0,.113.051.206.114.206a2.43,2.43,0,0,1,.311,1.223c-.007.1.04.138.1.1.129-.088.507.787.413.955-.033.058.006.106.086.106s.121.079.09.175a.949.949,0,0,0,.19.56c.136.212.2.387.142.39s.007.1.144.21.18.206.1.206a.147.147,0,0,0-.153.14.114.114,0,0,0,.154.1c.085-.019.157.091.16.245s.07.267.147.252.117.111.081.315c-.033.189,0,.343.069.343s.12.11.111.245c-.011.15.057.227.175.2.153-.036.16-.009.033.132s-.1.242.118.5c.2.232.226.323.1.325s-.148.026-.016.117a.625.625,0,0,1,.188.418c.011.166.095.3.186.3s.165.16.165.359c0,.249.049.326.16.253.127-.084.128-.062,0,.108s-.115.265.064.482a.96.96,0,0,1,.222.479.151.151,0,0,0,.182.167c.15-.035.153,0,.016.175-.1.134-.113.218-.029.218s.114.126.087.28c-.03.17.02.28.126.28.219,0,.6.806.437.919a.165.165,0,0,0-.045.214.126.126,0,0,0,.173.066c.1-.069.123.009.18.692.022.272.1.4.212.377.146-.036.148-.005.009.178s-.136.208.042.133c.211-.089.263.04.217.537-.013.135.045.245.127.245s.116.1.074.217-.023.181.055.129.108.048.071.273c-.061.368.1.5.227.186.038-.1.046,0,.019.21s.007.385.076.385.108.11.087.245.033.23.122.21.16.091.16.245.072.281.16.282c.116,0,.112.036-.016.124a.224.224,0,0,0-.087.28.157.157,0,0,0,.222.068c.085-.057.1.018.046.208s-.031.3.066.3.128.136.09.35,0,.35.082.35c.208,0,.532.6.358.668-.076.028-.107.141-.068.25s.136.159.217.109.1-.04.052.023-.024.211.064.329c.129.174.127.194-.014.1s-.145-.057-.026.186a.607.607,0,0,1,.057.459c-.053.093-.033.12.049.065s.162.04.193.223.063-4.838.072-11.139.054-11.519.1-11.6a.259.259,0,0,0-.047-.279c-.136-.148-.464.663-.35.864.034.06-.029.147-.14.194-.279.117-.337.106-.251-.046a.169.169,0,0,0-.056-.218.4.4,0,0,1-.13-.3c0-.123.061-.169.148-.11s.113.039.057-.061a.352.352,0,0,0-.276-.162c-.163,0-.25-.268-.2-.605.01-.063-.041-.075-.113-.027s-.131-.057-.131-.258-.061-.369-.136-.4-.154-.229-.176-.448a.822.822,0,0,0-.2-.507.2.2,0,0,1-.081-.25.158.158,0,0,0-.1-.217c-.111-.046-.155-.188-.113-.363s0-.318-.142-.375-.184-.179-.129-.369c.05-.173.032-.247-.048-.193s-.1-.024-.063-.193c.049-.2,0-.283-.172-.291-.135-.007-.169-.042-.079-.082.19-.084.216-.467.032-.467a.14.14,0,0,1-.128-.149c0-.081.067-.1.148-.048s.113.038.052-.069c-.072-.126-.139-.129-.271-.009s-.166.1-.124-.133c.028-.161-.006-.292-.077-.292s-.1-.056-.057-.125-.015-.161-.12-.206a.3.3,0,0,1-.181-.26c.008-.141.024-.141.074,0a.253.253,0,0,0,.214.17c.082,0,.02-.123-.14-.268-.2-.179-.237-.284-.128-.328s.126-.105.011-.239a.419.419,0,0,1-.082-.368c.038-.109-.013-.193-.116-.193s-.18-.129-.174-.315-.058-.3-.15-.28-.16-.106-.16-.3a.772.772,0,0,0-.188-.5.635.635,0,0,1-.16-.472c.018-.2-.035-.286-.153-.258-.157.037-.157.01,0-.2s.156-.234-.036-.155c-.156.064-.2.032-.146-.115a.811.811,0,0,0-.131-.542c-.152-.254-.164-.356-.046-.408.088-.039.057-.074-.072-.081-.192-.009-.206-.058-.083-.308.1-.213.1-.27,0-.2s-.172-.068-.221-.333c-.046-.25-.159-.429-.27-.429-.156,0-.162-.039-.032-.21s.121-.21.008-.21c-.083,0-.116-.063-.072-.14s.03-.14-.03-.14a5.032,5.032,0,0,1-.578-1.715c.017-.058-.035-.1-.118-.1s-.111-.042-.064-.094-.01-.209-.127-.35-.173-.257-.125-.257,0-.181-.1-.4-.155-.44-.113-.487-.019-.125-.137-.174c-.159-.067-.178-.137-.075-.272s.086-.215-.065-.306a.882.882,0,0,1-.271-.533.991.991,0,0,0-.178-.484,2.621,2.621,0,0,1-.324-1.052.13.13,0,0,0-.175-.1c-.09.021-.135-.012-.1-.074a7.243,7.243,0,0,0-.675-2.2,4.573,4.573,0,0,1-.555-1.816c.042-.046.013-.083-.063-.083s-.236-.3-.356-.665-.293-.854-.385-1.085c-.347-.867-.8-1.976-.993-2.444a1.228,1.228,0,0,1-.139-.595c.034-.061,0-.111-.081-.111s-.127-.11-.106-.245a1.076,1.076,0,0,0-.184-.591,1.383,1.383,0,0,1-.222-.531,3.133,3.133,0,0,0-.275-.774,6.029,6.029,0,0,1-.267-.621c.035-.145-.153-.6-.249-.6-.066,0-.087-.059-.047-.13a.17.17,0,0,0-.057-.218.6.6,0,0,1-.13-.421.6.6,0,0,0-.13-.422.161.161,0,0,1-.065-.2c.035-.063-.017-.189-.118-.28a1.264,1.264,0,0,1-.265-.574,1.031,1.031,0,0,0-.2-.488.606.606,0,0,1-.118-.413.6.6,0,0,0-.137-.426.266.266,0,0,1-.066-.3c.039-.112.023-.17-.036-.13s-.184-.193-.278-.518a4.067,4.067,0,0,0-.274-.743.217.217,0,0,1-.02-.245c.046-.051.024-.092-.048-.092s-.206-.283-.294-.63-.215-.63-.28-.63-.079-.07-.031-.156a.2.2,0,0,0-.028-.245,40.549,40.549,0,0,1-1.511-3.946,4.378,4.378,0,0,0-.314-.739,2.466,2.466,0,0,1-.269-.73,1.25,1.25,0,0,0-.119-.451A10.3,10.3,0,0,1,24,46.528a1.583,1.583,0,0,0-.184-.548.234.234,0,0,1-.024-.272c.052-.063.027-.073-.055-.021-.133.083-.36-.557-.3-.836.011-.05-.045-.136-.125-.19a.588.588,0,0,1-.166-.395c-.011-.163-.047-.267-.08-.231a4.885,4.885,0,0,1-.487-1.161c-.235-.674-.571-1.553-.746-1.952a4.122,4.122,0,0,1-.319-.937.384.384,0,0,0-.109-.285,11.365,11.365,0,0,1-.816-2.357c.015-.058-.029-.1-.1-.1s-.128-.095-.128-.21c0-.307-7.654-.318-7.762-.011" transform="translate(0 0.005)"/></g></g></svg>